  0
SECTION
  2
HEADER
  9
$EXTNAMES
290
1
  9
$EXTMIN
 10
-36.9570
 20
-26.7970
 30
0.0000
  9
$EXTMAX
 10
6.832092
 20
4.4450
 30
0.0000
  0
ENDSEC
  0
SECTION
  2
TABLES
  0
TABLE
  2
LTYPE
 70
3
  0
LTYPE
  2
BYBLOCK
 70
0
  3

 72
65
 73
0
 40
0.0000
  0
LTYPE
  2
BYLAYER
 70
0
  3

 72
65
 73
0
 40
0.0000
  0
LTYPE
  2
CONTINUOUS
 70
0
  3
Solid line
 72
65
 73
0
 40
0.0000
  0
ENDTAB
  0
TABLE
  2
LAYER
 70
12
  0
LAYER
  2
0
 70
0
 62
7
  6
CONTINUOUS
  0
LAYER
  2
TMC5160_BOB_V1_2_G1
 70
0
 62
-2
  6
CONTINUOUS
  0
LAYER
  2
TMC5160_BOB_V1_2_G2
 70
0
 62
-6
  6
CONTINUOUS
  0
LAYER
  2
TMC5160_BOB_V1_2_GBL
 70
0
 62
-1
  6
CONTINUOUS
  0
LAYER
  2
TMC5160_BOB_V1_2_GBO
 70
0
 62
-4
  6
CONTINUOUS
  0
LAYER
  2
TMC5160_BOB_V1_2_GBS
 70
0
 62
-5
  6
CONTINUOUS
  0
LAYER
  2
TMC5160_BOB_V1_2_GKO
 70
0
 62
10
  6
CONTINUOUS
  0
LAYER
  2
TMC5160_BOB_V1_2_GM1
 70
0
 62
-14
  6
CONTINUOUS
  0
LAYER
  2
TMC5160_BOB_V1_2_GTL
 70
0
 62
-9
  6
CONTINUOUS
  0
LAYER
  2
TMC5160_BOB_V1_2_GTO
 70
0
 62
12
  6
CONTINUOUS
  0
LAYER
  2
TMC5160_BOB_V1_2_GTP
 70
0
 62
-11
  6
CONTINUOUS
  0
LAYER
  2
TMC5160_BOB_V1_2_GTS
 70
0
 62
-13
  6
CONTINUOUS
  0
LAYER
  2
TMC5160_BOB_V1_2_TXT
 70
0
 62
-6
  6
CONTINUOUS
  0
ENDTAB
  0
TABLE
  2
STYLE
 70
0
  0
ENDTAB
  0
ENDSEC
  0
SECTION
  2
BLOCKS
  0
BLOCK
  2
ROUND_1
  3
ROUND_1
 70
64
 10
0.0000
 20
0.0000
 30
0.0000
  0
CIRCLE
  8
0
 10
0.0000
 20
0.0000
 30
0.0000
 40
0.749934
  0
ENDBLK
  0
BLOCK
  2
ROUND_11
  3
ROUND_11
 70
64
 10
0.0000
 20
0.0000
 30
0.0000
  0
CIRCLE
  8
0
 10
0.0000
 20
0.0000
 30
0.0000
 40
0.3556
  0
ENDBLK
  0
BLOCK
  2
ROUND_12
  3
ROUND_12
 70
64
 10
0.0000
 20
0.0000
 30
0.0000
  0
CIRCLE
  8
0
 10
0.0000
 20
0.0000
 30
0.0000
 40
0.2794
  0
ENDBLK
  0
BLOCK
  2
ROUND_23
  3
ROUND_23
 70
64
 10
0.0000
 20
0.0000
 30
0.0000
  0
CIRCLE
  8
0
 10
0.0000
 20
0.0000
 30
0.0000
 40
0.378586
  0
ENDBLK
  0
BLOCK
  2
ROUND_24
  3
ROUND_24
 70
64
 10
0.0000
 20
0.0000
 30
0.0000
  0
CIRCLE
  8
0
 10
0.0000
 20
0.0000
 30
0.0000
 40
0.3048
  0
ENDBLK
  0
BLOCK
  2
ROUND_33
  3
ROUND_33
 70
64
 10
0.0000
 20
0.0000
 30
0.0000
  0
CIRCLE
  8
0
 10
0.0000
 20
0.0000
 30
0.0000
 40
0.30607
  0
ENDBLK
  0
BLOCK
  2
ROUND_47
  3
ROUND_47
 70
64
 10
0.0000
 20
0.0000
 30
0.0000
  0
CIRCLE
  8
0
 10
0.0000
 20
0.0000
 30
0.0000
 40
0.249936
  0
ENDBLK
  0
BLOCK
  2
ROUND_48
  3
ROUND_48
 70
64
 10
0.0000
 20
0.0000
 30
0.0000
  0
CIRCLE
  8
0
 10
0.0000
 20
0.0000
 30
0.0000
 40
0.1270
  0
ENDBLK
  0
BLOCK
  2
ROUND_49
  3
ROUND_49
 70
64
 10
0.0000
 20
0.0000
 30
0.0000
  0
CIRCLE
  8
0
 10
0.0000
 20
0.0000
 30
0.0000
 40
0.2540
  0
ENDBLK
  0
BLOCK
  2
ROUND_50
  3
ROUND_50
 70
64
 10
0.0000
 20
0.0000
 30
0.0000
  0
CIRCLE
  8
0
 10
0.0000
 20
0.0000
 30
0.0000
 40
0.1016
  0
ENDBLK
  0
BLOCK
  2
ROUND_51
  3
ROUND_51
 70
64
 10
0.0000
 20
0.0000
 30
0.0000
  0
CIRCLE
  8
0
 10
0.0000
 20
0.0000
 30
0.0000
 40
0.799972
  0
ENDBLK
  0
BLOCK
  2
ROUND_52
  3
ROUND_52
 70
64
 10
0.0000
 20
0.0000
 30
0.0000
  0
CIRCLE
  8
0
 10
0.0000
 20
0.0000
 30
0.0000
 40
0.099948
  0
ENDBLK
  0
BLOCK
  2
ROUND_53
  3
ROUND_53
 70
64
 10
0.0000
 20
0.0000
 30
0.0000
  0
CIRCLE
  8
0
 10
0.0000
 20
0.0000
 30
0.0000
 40
0.0889
  0
ENDBLK
  0
BLOCK
  2
ROUND_54
  3
ROUND_54
 70
64
 10
0.0000
 20
0.0000
 30
0.0000
  0
CIRCLE
  8
0
 10
0.0000
 20
0.0000
 30
0.0000
 40
0.901572
  0
ENDBLK
  0
BLOCK
  2
ROUND_55
  3
ROUND_55
 70
64
 10
0.0000
 20
0.0000
 30
0.0000
  0
CIRCLE
  8
0
 10
0.0000
 20
0.0000
 30
0.0000
 40
0.851662
  0
ENDBLK
  0
BLOCK
  2
ROUND_56
  3
ROUND_56
 70
64
 10
0.0000
 20
0.0000
 30
0.0000
  0
CIRCLE
  8
0
 10
0.0000
 20
0.0000
 30
0.0000
 40
0.0508
  0
ENDBLK
  0
BLOCK
  2
ROUND_57
  3
ROUND_57
 70
64
 10
0.0000
 20
0.0000
 30
0.0000
  0
CIRCLE
  8
0
 10
0.0000
 20
0.0000
 30
0.0000
 40
0.0762
  0
ENDBLK
  0
BLOCK
  2
CUSTOM_58
  3
CUSTOM_58
 70
64
 10
0.0000
 20
0.0000
 30
0.0000
  0
SOLID
  8
0
 10
0.035306
 20
-0.742442
 30
0.0000
 11
-0.67183
 21
-0.035306
 31
0.0000
 12
0.035306
 22
-0.742442
 32
0.0000
 13
0.742442
 23
-0.035306
 33
0.0000
  0
SOLID
  8
0
 10
-0.67183
 20
-0.035306
 30
0.0000
 11
-0.742442
 21
0.035306
 31
0.0000
 12
0.742442
 22
-0.035306
 32
0.0000
 13
0.67183
 23
0.035306
 33
0.0000
  0
SOLID
  8
0
 10
-0.742442
 20
0.035306
 30
0.0000
 11
-0.035306
 21
0.742442
 31
0.0000
 12
0.67183
 22
0.035306
 32
0.0000
 13
-0.035306
 23
0.742442
 33
0.0000
  0
ENDBLK
  0
BLOCK
  2
RECTANGLE_59
  3
RECTANGLE_59
 70
64
 10
0.0000
 20
0.0000
 30
0.0000
  0
SOLID
  8
0
 10
0.550036
 20
0.499998
 30
0.0000
 11
0.550036
 21
-0.499998
 31
0.0000
 12
-0.550036
 22
0.499998
 32
0.0000
 13
-0.550036
 23
-0.499998
 33
0.0000
  0
ENDBLK
  0
BLOCK
  2
RECTANGLE_60
  3
RECTANGLE_60
 70
64
 10
0.0000
 20
0.0000
 30
0.0000
  0
SOLID
  8
0
 10
0.499998
 20
0.550036
 30
0.0000
 11
0.499998
 21
-0.550036
 31
0.0000
 12
-0.499998
 22
0.550036
 32
0.0000
 13
-0.499998
 23
-0.550036
 33
0.0000
  0
ENDBLK
  0
BLOCK
  2
RECTANGLE_61
  3
RECTANGLE_61
 70
64
 10
0.0000
 20
0.0000
 30
0.0000
  0
SOLID
  8
0
 10
0.550036
 20
0.900048
 30
0.0000
 11
0.550036
 21
-0.900048
 31
0.0000
 12
-0.550036
 22
0.900048
 32
0.0000
 13
-0.550036
 23
-0.900048
 33
0.0000
  0
ENDBLK
  0
BLOCK
  2
SQUARE_62
  3
SQUARE_62
 70
64
 10
0.0000
 20
0.0000
 30
0.0000
  0
SOLID
  8
0
 10
0.40005
 20
0.40005
 30
0.0000
 11
0.40005
 21
-0.40005
 31
0.0000
 12
-0.40005
 22
0.40005
 32
0.0000
 13
-0.40005
 23
-0.40005
 33
0.0000
  0
ENDBLK
  0
BLOCK
  2
OBLONG_63
  3
OBLONG_63
 70
64
 10
0.0000
 20
0.0000
 30
0.0000
  0
POLYLINE
  8
0
 66
1
 10
0.0000
 20
0.0000
 30
0.0000
 40
0.350012
 41
0.350012
  0
VERTEX
  8
0
 10
0.0000
 20
0.424942
 30
0.0000
  0
VERTEX
  8
0
 10
0.0000
 20
-0.424942
 30
0.0000
  0
SEQEND
  0
POLYLINE
  8
0
 66
1
 10
0.0000
 20
0.0000
 30
0.0000
 70
1
 40
0.175006
 41
0.175006
  0
VERTEX
  8
0
 10
-0.087502
 20
0.424942
 30
0.0000
 42
1
  0
VERTEX
  8
0
 10
0.087502
 20
0.424942
 30
0.0000
 42
1
  0
SEQEND
  0
POLYLINE
  8
0
 66
1
 10
0.0000
 20
0.0000
 30
0.0000
 70
1
 40
0.175006
 41
0.175006
  0
VERTEX
  8
0
 10
-0.087502
 20
-0.424942
 30
0.0000
 42
1
  0
VERTEX
  8
0
 10
0.087502
 20
-0.424942
 30
0.0000
 42
1
  0
SEQEND
  0
ENDBLK
  0
BLOCK
  2
OBLONG_64
  3
OBLONG_64
 70
64
 10
0.0000
 20
0.0000
 30
0.0000
  0
POLYLINE
  8
0
 66
1
 10
0.0000
 20
0.0000
 30
0.0000
 40
0.350012
 41
0.350012
  0
VERTEX
  8
0
 10
0.424942
 20
0.0000
 30
0.0000
  0
VERTEX
  8
0
 10
-0.424942
 20
0.0000
 30
0.0000
  0
SEQEND
  0
POLYLINE
  8
0
 66
1
 10
0.0000
 20
0.0000
 30
0.0000
 70
1
 40
0.175006
 41
0.175006
  0
VERTEX
  8
0
 10
0.33744
 20
0.0000
 30
0.0000
 42
1
  0
VERTEX
  8
0
 10
0.512444
 20
0.0000
 30
0.0000
 42
1
  0
SEQEND
  0
POLYLINE
  8
0
 66
1
 10
0.0000
 20
0.0000
 30
0.0000
 70
1
 40
0.175006
 41
0.175006
  0
VERTEX
  8
0
 10
-0.512444
 20
0.0000
 30
0.0000
 42
1
  0
VERTEX
  8
0
 10
-0.33744
 20
0.0000
 30
0.0000
 42
1
  0
SEQEND
  0
ENDBLK
  0
BLOCK
  2
SQUARE_65
  3
SQUARE_65
 70
64
 10
0.0000
 20
0.0000
 30
0.0000
  0
SOLID
  8
0
 10
2.550032
 20
2.550032
 30
0.0000
 11
2.550032
 21
-2.550032
 31
0.0000
 12
-2.550032
 22
2.550032
 32
0.0000
 13
-2.550032
 23
-2.550032
 33
0.0000
  0
ENDBLK
  0
BLOCK
  2
OBLONG_66
  3
OBLONG_66
 70
64
 10
0.0000
 20
0.0000
 30
0.0000
  0
POLYLINE
  8
0
 66
1
 10
0.0000
 20
0.0000
 30
0.0000
 40
0.549908
 41
0.549908
  0
VERTEX
  8
0
 10
0.350012
 20
0.0000
 30
0.0000
  0
VERTEX
  8
0
 10
-0.350012
 20
0.0000
 30
0.0000
  0
SEQEND
  0
POLYLINE
  8
0
 66
1
 10
0.0000
 20
0.0000
 30
0.0000
 70
1
 40
0.274954
 41
0.274954
  0
VERTEX
  8
0
 10
0.212536
 20
0.0000
 30
0.0000
 42
1
  0
VERTEX
  8
0
 10
0.487488
 20
0.0000
 30
0.0000
 42
1
  0
SEQEND
  0
POLYLINE
  8
0
 66
1
 10
0.0000
 20
0.0000
 30
0.0000
 70
1
 40
0.274954
 41
0.274954
  0
VERTEX
  8
0
 10
-0.487488
 20
0.0000
 30
0.0000
 42
1
  0
VERTEX
  8
0
 10
-0.212536
 20
0.0000
 30
0.0000
 42
1
  0
SEQEND
  0
ENDBLK
  0
BLOCK
  2
ROUND_67
  3
ROUND_67
 70
64
 10
0.0000
 20
0.0000
 30
0.0000
  0
CIRCLE
  8
0
 10
0.0000
 20
0.0000
 30
0.0000
 40
0.1524
  0
ENDBLK
  0
BLOCK
  2
ROUND_68
  3
ROUND_68
 70
64
 10
0.0000
 20
0.0000
 30
0.0000
  0
CIRCLE
  8
0
 10
0.0000
 20
0.0000
 30
0.0000
 40
0.069976
  0
ENDBLK
  0
BLOCK
  2
ROUND_69
  3
ROUND_69
 70
64
 10
0.0000
 20
0.0000
 30
0.0000
  0
CIRCLE
  8
0
 10
0.0000
 20
0.0000
 30
0.0000
 40
0.124968
  0
ENDBLK
  0
BLOCK
  2
ROUND_70
  3
ROUND_70
 70
64
 10
0.0000
 20
0.0000
 30
0.0000
  0
CIRCLE
  8
0
 10
0.0000
 20
0.0000
 30
0.0000
 40
0.299974
  0
ENDBLK
  0
BLOCK
  2
ROUND_71
  3
ROUND_71
 70
64
 10
0.0000
 20
0.0000
 30
0.0000
  0
CIRCLE
  8
0
 10
0.0000
 20
0.0000
 30
0.0000
 40
0.149986
  0
ENDBLK
  0
BLOCK
  2
ROUND_72
  3
ROUND_72
 70
64
 10
0.0000
 20
0.0000
 30
0.0000
  0
CIRCLE
  8
0
 10
0.0000
 20
0.0000
 30
0.0000
 40
0.0635
  0
ENDBLK
  0
BLOCK
  2
CUSTOM_73
  3
CUSTOM_73
 70
64
 10
0.0000
 20
0.0000
 30
0.0000
  0
SOLID
  8
0
 10
0.035306
 20
-0.886206
 30
0.0000
 11
-0.815594
 21
-0.035306
 31
0.0000
 12
0.035306
 22
-0.886206
 32
0.0000
 13
0.886206
 23
-0.035306
 33
0.0000
  0
SOLID
  8
0
 10
-0.815594
 20
-0.035306
 30
0.0000
 11
-0.886206
 21
0.035306
 31
0.0000
 12
0.886206
 22
-0.035306
 32
0.0000
 13
0.815594
 23
0.035306
 33
0.0000
  0
SOLID
  8
0
 10
-0.886206
 20
0.035306
 30
0.0000
 11
-0.035306
 21
0.886206
 31
0.0000
 12
0.815594
 22
0.035306
 32
0.0000
 13
-0.035306
 23
0.886206
 33
0.0000
  0
ENDBLK
  0
BLOCK
  2
RECTANGLE_74
  3
RECTANGLE_74
 70
64
 10
0.0000
 20
0.0000
 30
0.0000
  0
SOLID
  8
0
 10
0.651636
 20
0.601598
 30
0.0000
 11
0.651636
 21
-0.601598
 31
0.0000
 12
-0.651636
 22
0.601598
 32
0.0000
 13
-0.651636
 23
-0.601598
 33
0.0000
  0
ENDBLK
  0
BLOCK
  2
RECTANGLE_75
  3
RECTANGLE_75
 70
64
 10
0.0000
 20
0.0000
 30
0.0000
  0
SOLID
  8
0
 10
0.601598
 20
0.651636
 30
0.0000
 11
0.601598
 21
-0.651636
 31
0.0000
 12
-0.601598
 22
0.651636
 32
0.0000
 13
-0.601598
 23
-0.651636
 33
0.0000
  0
ENDBLK
  0
BLOCK
  2
RECTANGLE_76
  3
RECTANGLE_76
 70
64
 10
0.0000
 20
0.0000
 30
0.0000
  0
SOLID
  8
0
 10
0.651636
 20
1.001648
 30
0.0000
 11
0.651636
 21
-1.001648
 31
0.0000
 12
-0.651636
 22
1.001648
 32
0.0000
 13
-0.651636
 23
-1.001648
 33
0.0000
  0
ENDBLK
  0
BLOCK
  2
SQUARE_77
  3
SQUARE_77
 70
64
 10
0.0000
 20
0.0000
 30
0.0000
  0
SOLID
  8
0
 10
0.50165
 20
0.50165
 30
0.0000
 11
0.50165
 21
-0.50165
 31
0.0000
 12
-0.50165
 22
0.50165
 32
0.0000
 13
-0.50165
 23
-0.50165
 33
0.0000
  0
ENDBLK
  0
BLOCK
  2
OBLONG_78
  3
OBLONG_78
 70
64
 10
0.0000
 20
0.0000
 30
0.0000
  0
POLYLINE
  8
0
 66
1
 10
0.0000
 20
0.0000
 30
0.0000
 40
0.553212
 41
0.553212
  0
VERTEX
  8
0
 10
0.0000
 20
0.424942
 30
0.0000
  0
VERTEX
  8
0
 10
0.0000
 20
-0.424942
 30
0.0000
  0
SEQEND
  0
POLYLINE
  8
0
 66
1
 10
0.0000
 20
0.0000
 30
0.0000
 70
1
 40
0.276606
 41
0.276606
  0
VERTEX
  8
0
 10
-0.138302
 20
0.424942
 30
0.0000
 42
1
  0
VERTEX
  8
0
 10
0.138302
 20
0.424942
 30
0.0000
 42
1
  0
SEQEND
  0
POLYLINE
  8
0
 66
1
 10
0.0000
 20
0.0000
 30
0.0000
 70
1
 40
0.276606
 41
0.276606
  0
VERTEX
  8
0
 10
-0.138302
 20
-0.424942
 30
0.0000
 42
1
  0
VERTEX
  8
0
 10
0.138302
 20
-0.424942
 30
0.0000
 42
1
  0
SEQEND
  0
ENDBLK
  0
BLOCK
  2
OBLONG_79
  3
OBLONG_79
 70
64
 10
0.0000
 20
0.0000
 30
0.0000
  0
POLYLINE
  8
0
 66
1
 10
0.0000
 20
0.0000
 30
0.0000
 40
0.553212
 41
0.553212
  0
VERTEX
  8
0
 10
0.424942
 20
0.0000
 30
0.0000
  0
VERTEX
  8
0
 10
-0.424942
 20
0.0000
 30
0.0000
  0
SEQEND
  0
POLYLINE
  8
0
 66
1
 10
0.0000
 20
0.0000
 30
0.0000
 70
1
 40
0.276606
 41
0.276606
  0
VERTEX
  8
0
 10
0.28664
 20
0.0000
 30
0.0000
 42
1
  0
VERTEX
  8
0
 10
0.563244
 20
0.0000
 30
0.0000
 42
1
  0
SEQEND
  0
POLYLINE
  8
0
 66
1
 10
0.0000
 20
0.0000
 30
0.0000
 70
1
 40
0.276606
 41
0.276606
  0
VERTEX
  8
0
 10
-0.563244
 20
0.0000
 30
0.0000
 42
1
  0
VERTEX
  8
0
 10
-0.28664
 20
0.0000
 30
0.0000
 42
1
  0
SEQEND
  0
ENDBLK
  0
BLOCK
  2
SQUARE_80
  3
SQUARE_80
 70
64
 10
0.0000
 20
0.0000
 30
0.0000
  0
SOLID
  8
0
 10
2.651632
 20
2.651632
 30
0.0000
 11
2.651632
 21
-2.651632
 31
0.0000
 12
-2.651632
 22
2.651632
 32
0.0000
 13
-2.651632
 23
-2.651632
 33
0.0000
  0
ENDBLK
  0
BLOCK
  2
OBLONG_81
  3
OBLONG_81
 70
64
 10
0.0000
 20
0.0000
 30
0.0000
  0
POLYLINE
  8
0
 66
1
 10
0.0000
 20
0.0000
 30
0.0000
 40
0.753108
 41
0.753108
  0
VERTEX
  8
0
 10
0.350012
 20
0.0000
 30
0.0000
  0
VERTEX
  8
0
 10
-0.350012
 20
0.0000
 30
0.0000
  0
SEQEND
  0
POLYLINE
  8
0
 66
1
 10
0.0000
 20
0.0000
 30
0.0000
 70
1
 40
0.376554
 41
0.376554
  0
VERTEX
  8
0
 10
0.161736
 20
0.0000
 30
0.0000
 42
1
  0
VERTEX
  8
0
 10
0.538288
 20
0.0000
 30
0.0000
 42
1
  0
SEQEND
  0
POLYLINE
  8
0
 66
1
 10
0.0000
 20
0.0000
 30
0.0000
 70
1
 40
0.376554
 41
0.376554
  0
VERTEX
  8
0
 10
-0.538288
 20
0.0000
 30
0.0000
 42
1
  0
VERTEX
  8
0
 10
-0.161736
 20
0.0000
 30
0.0000
 42
1
  0
SEQEND
  0
ENDBLK
  0
BLOCK
  2
ROUND_82
  3
ROUND_82
 70
64
 10
0.0000
 20
0.0000
 30
0.0000
  0
CIRCLE
  8
0
 10
0.0000
 20
0.0000
 30
0.0000
 40
0.351536
  0
ENDBLK
  0
ENDSEC
  0
SECTION
  2
ENTITIES
  0
POLYLINE
  8
TMC5160_BOB_V1_2_GKO
 66
1
 10
0.0000
 20
0.0000
 30
0.0000
 40
0.1016
 41
0.1016
  0
VERTEX
  8
TMC5160_BOB_V1_2_GKO
 10
1.2700
 20
0.270002
 30
0.0000
 42
0.4142136
  0
VERTEX
  8
TMC5160_BOB_V1_2_GKO
 10
0.270002
 20
1.2700
 30
0.0000
 42
0.0000
  0
SEQEND
  0
POLYLINE
  8
TMC5160_BOB_V1_2_GKO
 66
1
 10
0.0000
 20
0.0000
 30
0.0000
 40
0.1016
 41
0.1016
  0
VERTEX
  8
TMC5160_BOB_V1_2_GKO
 10
0.270002
 20
-26.6700
 30
0.0000
 42
0.4142136
  0
VERTEX
  8
TMC5160_BOB_V1_2_GKO
 10
1.2700
 20
-25.670002
 30
0.0000
 42
0.0000
  0
SEQEND
  0
POLYLINE
  8
TMC5160_BOB_V1_2_GKO
 66
1
 10
0.0000
 20
0.0000
 30
0.0000
 40
0.1016
 41
0.1016
  0
VERTEX
  8
TMC5160_BOB_V1_2_GKO
 10
-36.8300
 20
-25.670002
 30
0.0000
 42
0.4142136
  0
VERTEX
  8
TMC5160_BOB_V1_2_GKO
 10
-35.830002
 20
-26.6700
 30
0.0000
 42
0.0000
  0
SEQEND
  0
POLYLINE
  8
TMC5160_BOB_V1_2_GKO
 66
1
 10
0.0000
 20
0.0000
 30
0.0000
 40
0.1016
 41
0.1016
  0
VERTEX
  8
TMC5160_BOB_V1_2_GKO
 10
-35.830002
 20
1.2700
 30
0.0000
 42
0.4142136
  0
VERTEX
  8
TMC5160_BOB_V1_2_GKO
 10
-36.8300
 20
0.270002
 30
0.0000
 42
0.0000
  0
SEQEND
  0
POLYLINE
  8
TMC5160_BOB_V1_2_GKO
 66
1
 10
0.0000
 20
0.0000
 30
0.0000
 40
0.1016
 41
0.1016
  0
VERTEX
  8
TMC5160_BOB_V1_2_GKO
 10
-35.830002
 20
1.2700
 30
0.0000
  0
VERTEX
  8
TMC5160_BOB_V1_2_GKO
 10
0.270002
 20
1.2700
 30
0.0000
  0
SEQEND
  0
POLYLINE
  8
TMC5160_BOB_V1_2_GKO
 66
1
 10
0.0000
 20
0.0000
 30
0.0000
 40
0.1016
 41
0.1016
  0
VERTEX
  8
TMC5160_BOB_V1_2_GKO
 10
-36.8300
 20
0.270002
 30
0.0000
  0
VERTEX
  8
TMC5160_BOB_V1_2_GKO
 10
-36.8300
 20
-25.670002
 30
0.0000
  0
SEQEND
  0
POLYLINE
  8
TMC5160_BOB_V1_2_GKO
 66
1
 10
0.0000
 20
0.0000
 30
0.0000
 40
0.1016
 41
0.1016
  0
VERTEX
  8
TMC5160_BOB_V1_2_GKO
 10
-35.830002
 20
-26.6700
 30
0.0000
  0
VERTEX
  8
TMC5160_BOB_V1_2_GKO
 10
0.270002
 20
-26.6700
 30
0.0000
  0
SEQEND
  0
POLYLINE
  8
TMC5160_BOB_V1_2_GKO
 66
1
 10
0.0000
 20
0.0000
 30
0.0000
 40
0.1016
 41
0.1016
  0
VERTEX
  8
TMC5160_BOB_V1_2_GKO
 10
1.2700
 20
-25.670002
 30
0.0000
  0
VERTEX
  8
TMC5160_BOB_V1_2_GKO
 10
1.2700
 20
0.270002
 30
0.0000
  0
SEQEND
  0
SOLID
  8
TMC5160_BOB_V1_2_GTO
 10
-7.434072
 20
-12.025374
 30
0.0000
 11
-7.434072
 21
-12.002266
 31
0.0000
 12
-7.434072
 22
-12.025374
 32
0.0000
 13
-7.226326
 23
-12.002266
 33
0.0000
  0
SOLID
  8
TMC5160_BOB_V1_2_GTO
 10
-7.434072
 20
-12.002266
 30
0.0000
 11
-7.434072
 21
-11.881112
 31
0.0000
 12
-7.226326
 22
-12.002266
 32
0.0000
 13
-6.826024
 23
-11.881112
 33
0.0000
  0
SOLID
  8
TMC5160_BOB_V1_2_GTO
 10
-7.434072
 20
-11.881112
 30
0.0000
 11
-7.434072
 21
-11.689346
 31
0.0000
 12
-6.826024
 22
-11.881112
 32
0.0000
 13
-6.454418
 23
-11.689346
 33
0.0000
  0
SOLID
  8
TMC5160_BOB_V1_2_GTO
 10
-7.434072
 20
-11.689346
 30
0.0000
 11
-7.434072
 21
-11.433574
 31
0.0000
 12
-6.454418
 22
-11.689346
 32
0.0000
 13
-6.123706
 23
-11.433574
 33
0.0000
  0
SOLID
  8
TMC5160_BOB_V1_2_GTO
 10
-7.434072
 20
-11.433574
 30
0.0000
 11
-7.434072
 21
-11.121664
 31
0.0000
 12
-6.123706
 22
-11.433574
 32
0.0000
 13
-5.844812
 23
-11.121664
 33
0.0000
  0
SOLID
  8
TMC5160_BOB_V1_2_GTO
 10
-7.434072
 20
-11.121664
 30
0.0000
 11
-7.434072
 21
-10.764544
 31
0.0000
 12
-5.844812
 22
-11.121664
 32
0.0000
 13
-5.627384
 23
-10.764544
 33
0.0000
  0
SOLID
  8
TMC5160_BOB_V1_2_GTO
 10
-7.434072
 20
-10.764544
 30
0.0000
 11
-7.434072
 21
-10.6426
 31
0.0000
 12
-5.627384
 22
-10.764544
 32
0.0000
 13
-5.580762
 23
-10.6426
 33
0.0000
  0
SOLID
  8
TMC5160_BOB_V1_2_GTO
 10
-6.418086
 20
-10.6426
 30
0.0000
 11
-6.330972
 21
-10.638282
 31
0.0000
 12
-5.580762
 22
-10.6426
 32
0.0000
 13
-5.579112
 23
-10.638282
 33
0.0000
  0
SOLID
  8
TMC5160_BOB_V1_2_GTO
 10
-7.434072
 20
-10.6426
 30
0.0000
 11
-7.434072
 21
-10.638276
 31
0.0000
 12
-6.418086
 22
-10.6426
 32
0.0000
 13
-6.505218
 23
-10.638276
 33
0.0000
  0
SOLID
  8
TMC5160_BOB_V1_2_GTO
 10
-6.330972
 20
-10.638282
 30
0.0000
 11
-6.160036
 21
-10.604252
 31
0.0000
 12
-5.579112
 22
-10.638282
 32
0.0000
 13
-5.566102
 23
-10.604252
 33
0.0000
  0
SOLID
  8
TMC5160_BOB_V1_2_GTO
 10
-7.434072
 20
-10.638276
 30
0.0000
 11
-7.434072
 21
-10.604234
 31
0.0000
 12
-6.505218
 22
-10.638276
 32
0.0000
 13
-6.676162
 23
-10.604234
 33
0.0000
  0
SOLID
  8
TMC5160_BOB_V1_2_GTO
 10
-6.160036
 20
-10.604252
 30
0.0000
 11
-5.9990
 21
-10.537708
 31
0.0000
 12
-5.566102
 22
-10.604252
 32
0.0000
 13
-5.54066
 23
-10.537708
 33
0.0000
  0
SOLID
  8
TMC5160_BOB_V1_2_GTO
 10
-7.434072
 20
-10.604234
 30
0.0000
 11
-7.434072
 21
-10.537682
 31
0.0000
 12
-6.676162
 22
-10.604234
 32
0.0000
 13
-6.837198
 23
-10.537682
 33
0.0000
  0
SOLID
  8
TMC5160_BOB_V1_2_GTO
 10
-5.9990
 20
-10.537708
 30
0.0000
 11
-5.854216
 21
-10.440686
 31
0.0000
 12
-5.54066
 22
-10.537708
 32
0.0000
 13
-5.503566
 23
-10.440686
 33
0.0000
  0
SOLID
  8
TMC5160_BOB_V1_2_GTO
 10
-7.434072
 20
-10.537682
 30
0.0000
 11
-7.434072
 21
-10.440648
 31
0.0000
 12
-6.837198
 22
-10.537682
 32
0.0000
 13
-6.982226
 23
-10.440648
 33
0.0000
  0
SOLID
  8
TMC5160_BOB_V1_2_GTO
 10
-5.854216
 20
-10.440686
 30
0.0000
 11
-5.787422
 21
-10.373894
 31
0.0000
 12
-5.503566
 22
-10.440686
 32
0.0000
 13
-5.478028
 23
-10.373894
 33
0.0000
  0
SOLID
  8
TMC5160_BOB_V1_2_GTO
 10
-5.787422
 20
-10.373894
 30
0.0000
 11
-5.731024
 21
-10.3175
 31
0.0000
 12
-5.478028
 22
-10.373894
 32
0.0000
 13
-5.467614
 23
-10.3175
 33
0.0000
  0
SOLID
  8
TMC5160_BOB_V1_2_GTO
 10
-7.434072
 20
-10.440648
 30
0.0000
 11
-7.434072
 21
-10.317456
 31
0.0000
 12
-6.982226
 22
-10.440648
 32
0.0000
 13
-7.105412
 23
-10.317456
 33
0.0000
  0
SOLID
  8
TMC5160_BOB_V1_2_GTO
 10
-5.731024
 20
-10.3175
 30
0.0000
 11
-5.634244
 21
-10.172726
 31
0.0000
 12
-5.467614
 22
-10.3175
 32
0.0000
 13
-5.440874
 23
-10.172726
 33
0.0000
  0
SOLID
  8
TMC5160_BOB_V1_2_GTO
 10
-7.434072
 20
-10.317456
 30
0.0000
 11
-7.434072
 21
-10.172672
 31
0.0000
 12
-7.105412
 22
-10.317456
 32
0.0000
 13
-7.20218
 23
-10.172672
 33
0.0000
  0
SOLID
  8
TMC5160_BOB_V1_2_GTO
 10
-5.634244
 20
-10.172726
 30
0.0000
 11
-5.567438
 21
-10.01169
 31
0.0000
 12
-5.440874
 22
-10.172726
 32
0.0000
 13
-5.411132
 23
-10.01169
 33
0.0000
  0
SOLID
  8
TMC5160_BOB_V1_2_GTO
 10
-7.434072
 20
-10.172672
 30
0.0000
 11
-7.434072
 21
-10.011636
 31
0.0000
 12
-7.20218
 22
-10.172672
 32
0.0000
 13
-7.268978
 23
-10.011636
 33
0.0000
  0
SOLID
  8
TMC5160_BOB_V1_2_GTO
 10
-5.567438
 20
-10.01169
 30
0.0000
 11
-5.557676
 21
-9.962668
 31
0.0000
 12
-5.411132
 22
-10.01169
 32
0.0000
 13
-5.402078
 23
-9.962668
 33
0.0000
  0
SOLID
  8
TMC5160_BOB_V1_2_GTO
 10
-5.557676
 20
-9.962668
 30
0.0000
 11
-5.533396
 21
-9.840746
 31
0.0000
 12
-5.402078
 22
-9.962668
 32
0.0000
 13
-5.402076
 23
-9.840746
 33
0.0000
  0
SOLID
  8
TMC5160_BOB_V1_2_GTO
 10
-7.434072
 20
-10.011636
 30
0.0000
 11
-7.434072
 21
-9.8407
 31
0.0000
 12
-7.268978
 22
-10.011636
 32
0.0000
 13
-7.303008
 23
-9.8407
 33
0.0000
  0
SOLID
  8
TMC5160_BOB_V1_2_GTO
 10
-7.434072
 20
-9.8407
 30
0.0000
 11
-7.434072
 21
-9.753614
 31
0.0000
 12
-7.303008
 22
-9.8407
 32
0.0000
 13
-7.307072
 23
-9.753614
 33
0.0000
  0
SOLID
  8
TMC5160_BOB_V1_2_GTO
 10
-5.533396
 20
-9.840746
 30
0.0000
 11
-5.529072
 21
-9.753614
 31
0.0000
 12
-5.402076
 22
-9.840746
 32
0.0000
 13
-5.402074
 23
-9.753614
 33
0.0000
  0
SOLID
  8
TMC5160_BOB_V1_2_GTO
 10
-7.434072
 20
-9.753614
 30
0.0000
 11
-7.434072
 21
-9.7536
 31
0.0000
 12
-7.307072
 22
-9.753614
 32
0.0000
 13
-7.307072
 23
-9.7536
 33
0.0000
  0
SOLID
  8
TMC5160_BOB_V1_2_GTO
 10
-5.529072
 20
-9.753614
 30
0.0000
 11
-5.529072
 21
-9.7536
 31
0.0000
 12
-5.402074
 22
-9.753614
 32
0.0000
 13
-5.402072
 23
-9.7536
 33
0.0000
  0
SOLID
  8
TMC5160_BOB_V1_2_GTO
 10
-7.434072
 20
-9.7536
 30
0.0000
 11
-7.434072
 21
-9.6665
 31
0.0000
 12
-7.307072
 22
-9.7536
 32
0.0000
 13
-7.303008
 23
-9.6665
 33
0.0000
  0
SOLID
  8
TMC5160_BOB_V1_2_GTO
 10
-5.529072
 20
-9.7536
 30
0.0000
 11
-5.533396
 21
-9.666454
 31
0.0000
 12
-5.402072
 22
-9.7536
 32
0.0000
 13
-5.402074
 23
-9.666454
 33
0.0000
  0
SOLID
  8
TMC5160_BOB_V1_2_GTO
 10
-5.533396
 20
-9.666454
 30
0.0000
 11
-5.557674
 21
-9.544532
 31
0.0000
 12
-5.402074
 22
-9.666454
 32
0.0000
 13
-5.402078
 23
-9.544532
 33
0.0000
  0
SOLID
  8
TMC5160_BOB_V1_2_GTO
 10
-7.434072
 20
-9.6665
 30
0.0000
 11
-7.434072
 21
-9.495564
 31
0.0000
 12
-7.303008
 22
-9.6665
 32
0.0000
 13
-7.268978
 23
-9.495564
 33
0.0000
  0
SOLID
  8
TMC5160_BOB_V1_2_GTO
 10
-5.557674
 20
-9.544532
 30
0.0000
 11
-5.567438
 21
-9.49551
 31
0.0000
 12
-5.402078
 22
-9.544532
 32
0.0000
 13
-5.41113
 23
-9.49551
 33
0.0000
  0
SOLID
  8
TMC5160_BOB_V1_2_GTO
 10
-7.434072
 20
-9.495564
 30
0.0000
 11
-7.434072
 21
-9.334528
 31
0.0000
 12
-7.268978
 22
-9.495564
 32
0.0000
 13
-7.20218
 23
-9.334528
 33
0.0000
  0
SOLID
  8
TMC5160_BOB_V1_2_GTO
 10
-5.567438
 20
-9.49551
 30
0.0000
 11
-5.634244
 21
-9.334474
 31
0.0000
 12
-5.41113
 22
-9.49551
 32
0.0000
 13
-5.440872
 23
-9.334474
 33
0.0000
  0
SOLID
  8
TMC5160_BOB_V1_2_GTO
 10
-7.434072
 20
-9.334528
 30
0.0000
 11
-7.434072
 21
-9.189744
 31
0.0000
 12
-7.20218
 22
-9.334528
 32
0.0000
 13
-7.105412
 23
-9.189744
 33
0.0000
  0
SOLID
  8
TMC5160_BOB_V1_2_GTO
 10
-5.634244
 20
-9.334474
 30
0.0000
 11
-5.731024
 21
-9.1897
 31
0.0000
 12
-5.440872
 22
-9.334474
 32
0.0000
 13
-5.467612
 23
-9.1897
 33
0.0000
  0
SOLID
  8
TMC5160_BOB_V1_2_GTO
 10
-5.731024
 20
-9.1897
 30
0.0000
 11
-5.78742
 21
-9.133306
 31
0.0000
 12
-5.467612
 22
-9.1897
 32
0.0000
 13
-5.478028
 23
-9.133306
 33
0.0000
  0
SOLID
  8
TMC5160_BOB_V1_2_GTO
 10
-7.434072
 20
-9.189744
 30
0.0000
 11
-7.434072
 21
-9.066552
 31
0.0000
 12
-7.105412
 22
-9.189744
 32
0.0000
 13
-6.982226
 23
-9.066552
 33
0.0000
  0
SOLID
  8
TMC5160_BOB_V1_2_GTO
 10
-5.78742
 20
-9.133306
 30
0.0000
 11
-5.854216
 21
-9.066514
 31
0.0000
 12
-5.478028
 22
-9.133306
 32
0.0000
 13
-5.503564
 23
-9.066514
 33
0.0000
  0
SOLID
  8
TMC5160_BOB_V1_2_GTO
 10
-7.434072
 20
-9.066552
 30
0.0000
 11
-7.434072
 21
-8.969518
 31
0.0000
 12
-6.982226
 22
-9.066552
 32
0.0000
 13
-6.837198
 23
-8.969518
 33
0.0000
  0
SOLID
  8
TMC5160_BOB_V1_2_GTO
 10
-5.854216
 20
-9.066514
 30
0.0000
 11
-5.9990
 21
-8.969492
 31
0.0000
 12
-5.503564
 22
-9.066514
 32
0.0000
 13
-5.540658
 23
-8.969492
 33
0.0000
  0
SOLID
  8
TMC5160_BOB_V1_2_GTO
 10
-7.434072
 20
-8.969518
 30
0.0000
 11
-7.434072
 21
-8.902966
 31
0.0000
 12
-6.837198
 22
-8.969518
 32
0.0000
 13
-6.676162
 23
-8.902966
 33
0.0000
  0
SOLID
  8
TMC5160_BOB_V1_2_GTO
 10
-5.9990
 20
-8.969492
 30
0.0000
 11
-6.160036
 21
-8.902948
 31
0.0000
 12
-5.540658
 22
-8.969492
 32
0.0000
 13
-5.5661
 23
-8.902948
 33
0.0000
  0
SOLID
  8
TMC5160_BOB_V1_2_GTO
 10
-7.434072
 20
-8.902966
 30
0.0000
 11
-7.434072
 21
-8.868924
 31
0.0000
 12
-6.676162
 22
-8.902966
 32
0.0000
 13
-6.505218
 23
-8.868924
 33
0.0000
  0
SOLID
  8
TMC5160_BOB_V1_2_GTO
 10
-6.160036
 20
-8.902948
 30
0.0000
 11
-6.330972
 21
-8.868918
 31
0.0000
 12
-5.5661
 22
-8.902948
 32
0.0000
 13
-5.57911
 23
-8.868918
 33
0.0000
  0
SOLID
  8
TMC5160_BOB_V1_2_GTO
 10
-7.434072
 20
-8.868924
 30
0.0000
 11
-7.434072
 21
-8.8646
 31
0.0000
 12
-6.505218
 22
-8.868924
 32
0.0000
 13
-6.418086
 23
-8.8646
 33
0.0000
  0
SOLID
  8
TMC5160_BOB_V1_2_GTO
 10
-6.330972
 20
-8.868918
 30
0.0000
 11
-6.418086
 21
-8.8646
 31
0.0000
 12
-5.57911
 22
-8.868918
 32
0.0000
 13
-5.58076
 23
-8.8646
 33
0.0000
  0
SOLID
  8
TMC5160_BOB_V1_2_GTO
 10
-7.434072
 20
-8.8646
 30
0.0000
 11
-7.434072
 21
-8.742656
 31
0.0000
 12
-5.58076
 22
-8.8646
 32
0.0000
 13
-5.627384
 23
-8.742656
 33
0.0000
  0
SOLID
  8
TMC5160_BOB_V1_2_GTO
 10
-7.434072
 20
-8.742656
 30
0.0000
 11
-7.434072
 21
-8.385536
 31
0.0000
 12
-5.627384
 22
-8.742656
 32
0.0000
 13
-5.844812
 23
-8.385536
 33
0.0000
  0
SOLID
  8
TMC5160_BOB_V1_2_GTO
 10
-7.434072
 20
-8.385536
 30
0.0000
 11
-7.434072
 21
-8.073626
 31
0.0000
 12
-5.844812
 22
-8.385536
 32
0.0000
 13
-6.123706
 23
-8.073626
 33
0.0000
  0
SOLID
  8
TMC5160_BOB_V1_2_GTO
 10
-7.434072
 20
-8.073626
 30
0.0000
 11
-7.434072
 21
-7.817854
 31
0.0000
 12
-6.123706
 22
-8.073626
 32
0.0000
 13
-6.454418
 23
-7.817854
 33
0.0000
  0
SOLID
  8
TMC5160_BOB_V1_2_GTO
 10
-7.434072
 20
-7.817854
 30
0.0000
 11
-7.434072
 21
-7.626088
 31
0.0000
 12
-6.454418
 22
-7.817854
 32
0.0000
 13
-6.826024
 23
-7.626088
 33
0.0000
  0
SOLID
  8
TMC5160_BOB_V1_2_GTO
 10
-7.434072
 20
-7.626088
 30
0.0000
 11
-7.434072
 21
-7.504934
 31
0.0000
 12
-6.826024
 22
-7.626088
 32
0.0000
 13
-7.226326
 23
-7.504934
 33
0.0000
  0
SOLID
  8
TMC5160_BOB_V1_2_GTO
 10
-7.434072
 20
-7.504934
 30
0.0000
 11
-7.434072
 21
-7.481826
 31
0.0000
 12
-7.226326
 22
-7.504934
 32
0.0000
 13
-7.434072
 23
-7.481826
 33
0.0000
  0
POLYLINE
  8
TMC5160_BOB_V1_2_GTO
 66
1
 10
0.0000
 20
0.0000
 30
0.0000
 70
1
 40
0.139954
 41
0.139954
  0
VERTEX
  8
TMC5160_BOB_V1_2_GTO
 10
-9.977628
 20
-9.7536
 30
0.0000
 42
1
  0
VERTEX
  8
TMC5160_BOB_V1_2_GTO
 10
-5.398516
 20
-9.7536
 30
0.0000
 42
1
  0
SEQEND
  0
POLYLINE
  8
TMC5160_BOB_V1_2_GTO
 66
1
 10
0.0000
 20
0.0000
 30
0.0000
 70
1
 40
0.249936
 41
0.249936
  0
VERTEX
  8
TMC5160_BOB_V1_2_GTO
 10
-21.298408
 20
-8.29183
 30
0.0000
 42
1
  0
VERTEX
  8
TMC5160_BOB_V1_2_GTO
 10
-21.048472
 20
-8.29183
 30
0.0000
 42
1
  0
SEQEND
  0
POLYLINE
  8
TMC5160_BOB_V1_2_GTO
 66
1
 10
0.0000
 20
0.0000
 30
0.0000
 70
1
 40
0.249936
 41
0.249936
  0
VERTEX
  8
TMC5160_BOB_V1_2_GTO
 10
-12.93622
 20
-20.790408
 30
0.0000
 42
1
  0
VERTEX
  8
TMC5160_BOB_V1_2_GTO
 10
-12.686284
 20
-20.790408
 30
0.0000
 42
1
  0
SEQEND
  0
POLYLINE
  8
TMC5160_BOB_V1_2_GTO
 66
1
 10
0.0000
 20
0.0000
 30
0.0000
 70
1
 40
0.249936
 41
0.249936
  0
VERTEX
  8
TMC5160_BOB_V1_2_GTO
 10
-20.55622
 20
-20.790408
 30
0.0000
 42
1
  0
VERTEX
  8
TMC5160_BOB_V1_2_GTO
 10
-20.306284
 20
-20.790408
 30
0.0000
 42
1
  0
SEQEND
  0
POLYLINE
  8
TMC5160_BOB_V1_2_GTO
 66
1
 10
0.0000
 20
0.0000
 30
0.0000
 70
1
 40
0.249936
 41
0.249936
  0
VERTEX
  8
TMC5160_BOB_V1_2_GTO
 10
-13.82522
 20
0.850392
 30
0.0000
 42
1
  0
VERTEX
  8
TMC5160_BOB_V1_2_GTO
 10
-13.575284
 20
0.850392
 30
0.0000
 42
1
  0
SEQEND
  0
POLYLINE
  8
TMC5160_BOB_V1_2_GTO
 66
1
 10
0.0000
 20
0.0000
 30
0.0000
 70
1
 40
0.249936
 41
0.249936
  0
VERTEX
  8
TMC5160_BOB_V1_2_GTO
 10
-21.44522
 20
0.850392
 30
0.0000
 42
1
  0
VERTEX
  8
TMC5160_BOB_V1_2_GTO
 10
-21.195284
 20
0.850392
 30
0.0000
 42
1
  0
SEQEND
  0
POLYLINE
  8
TMC5160_BOB_V1_2_GTO
 66
1
 10
0.0000
 20
0.0000
 30
0.0000
 70
1
 40
0.599948
 41
0.599948
  0
VERTEX
  8
TMC5160_BOB_V1_2_GTO
 10
-11.086084
 20
-22.02053
 30
0.0000
 42
1
  0
VERTEX
  8
TMC5160_BOB_V1_2_GTO
 10
-10.486136
 20
-22.02053
 30
0.0000
 42
1
  0
SEQEND
  0
POLYLINE
  8
TMC5160_BOB_V1_2_GTO
 66
1
 10
0.0000
 20
0.0000
 30
0.0000
 70
1
 40
0.599948
 41
0.599948
  0
VERTEX
  8
TMC5160_BOB_V1_2_GTO
 10
-18.706084
 20
-22.02053
 30
0.0000
 42
1
  0
VERTEX
  8
TMC5160_BOB_V1_2_GTO
 10
-18.106136
 20
-22.02053
 30
0.0000
 42
1
  0
SEQEND
  0
POLYLINE
  8
TMC5160_BOB_V1_2_GTO
 66
1
 10
0.0000
 20
0.0000
 30
0.0000
 70
1
 40
0.599948
 41
0.599948
  0
VERTEX
  8
TMC5160_BOB_V1_2_GTO
 10
-11.975084
 20
-0.37973
 30
0.0000
 42
1
  0
VERTEX
  8
TMC5160_BOB_V1_2_GTO
 10
-11.375136
 20
-0.37973
 30
0.0000
 42
1
  0
SEQEND
  0
POLYLINE
  8
TMC5160_BOB_V1_2_GTO
 66
1
 10
0.0000
 20
0.0000
 30
0.0000
 70
1
 40
0.599948
 41
0.599948
  0
VERTEX
  8
TMC5160_BOB_V1_2_GTO
 10
-19.595084
 20
-0.37973
 30
0.0000
 42
1
  0
VERTEX
  8
TMC5160_BOB_V1_2_GTO
 10
-18.995136
 20
-0.37973
 30
0.0000
 42
1
  0
SEQEND
  0
POLYLINE
  8
TMC5160_BOB_V1_2_GTO
 66
1
 10
0.0000
 20
0.0000
 30
0.0000
 40
0.199898
 41
0.199898
  0
VERTEX
  8
TMC5160_BOB_V1_2_GTO
 10
-1.2700
 20
-3.8100
 30
0.0000
  0
VERTEX
  8
TMC5160_BOB_V1_2_GTO
 10
1.2700
 20
-3.8100
 30
0.0000
  0
SEQEND
  0
POLYLINE
  8
TMC5160_BOB_V1_2_GTO
 66
1
 10
0.0000
 20
0.0000
 30
0.0000
 40
0.199898
 41
0.199898
  0
VERTEX
  8
TMC5160_BOB_V1_2_GTO
 10
1.2700
 20
-13.9700
 30
0.0000
  0
VERTEX
  8
TMC5160_BOB_V1_2_GTO
 10
1.2700
 20
-3.8100
 30
0.0000
  0
SEQEND
  0
POLYLINE
  8
TMC5160_BOB_V1_2_GTO
 66
1
 10
0.0000
 20
0.0000
 30
0.0000
 40
0.199898
 41
0.199898
  0
VERTEX
  8
TMC5160_BOB_V1_2_GTO
 10
-1.2700
 20
-13.9700
 30
0.0000
  0
VERTEX
  8
TMC5160_BOB_V1_2_GTO
 10
-1.2700
 20
-3.8100
 30
0.0000
  0
SEQEND
  0
POLYLINE
  8
TMC5160_BOB_V1_2_GTO
 66
1
 10
0.0000
 20
0.0000
 30
0.0000
 40
0.199898
 41
0.199898
  0
VERTEX
  8
TMC5160_BOB_V1_2_GTO
 10
-1.2700
 20
-13.9700
 30
0.0000
  0
VERTEX
  8
TMC5160_BOB_V1_2_GTO
 10
1.2700
 20
-13.9700
 30
0.0000
  0
SEQEND
  0
POLYLINE
  8
TMC5160_BOB_V1_2_GTO
 66
1
 10
0.0000
 20
0.0000
 30
0.0000
 40
0.199898
 41
0.199898
  0
VERTEX
  8
TMC5160_BOB_V1_2_GTO
 10
-34.2900
 20
-26.6700
 30
0.0000
  0
VERTEX
  8
TMC5160_BOB_V1_2_GTO
 10
-34.2900
 20
-13.9700
 30
0.0000
  0
SEQEND
  0
POLYLINE
  8
TMC5160_BOB_V1_2_GTO
 66
1
 10
0.0000
 20
0.0000
 30
0.0000
 40
0.199898
 41
0.199898
  0
VERTEX
  8
TMC5160_BOB_V1_2_GTO
 10
-36.8300
 20
-13.9700
 30
0.0000
  0
VERTEX
  8
TMC5160_BOB_V1_2_GTO
 10
-34.2900
 20
-13.9700
 30
0.0000
  0
SEQEND
  0
POLYLINE
  8
TMC5160_BOB_V1_2_GTO
 66
1
 10
0.0000
 20
0.0000
 30
0.0000
 40
0.199898
 41
0.199898
  0
VERTEX
  8
TMC5160_BOB_V1_2_GTO
 10
-36.8300
 20
-26.6700
 30
0.0000
  0
VERTEX
  8
TMC5160_BOB_V1_2_GTO
 10
-36.8300
 20
-13.9700
 30
0.0000
  0
SEQEND
  0
POLYLINE
  8
TMC5160_BOB_V1_2_GTO
 66
1
 10
0.0000
 20
0.0000
 30
0.0000
 40
0.199898
 41
0.199898
  0
VERTEX
  8
TMC5160_BOB_V1_2_GTO
 10
-36.8300
 20
-26.6700
 30
0.0000
  0
VERTEX
  8
TMC5160_BOB_V1_2_GTO
 10
-34.2900
 20
-26.6700
 30
0.0000
  0
SEQEND
  0
POLYLINE
  8
TMC5160_BOB_V1_2_GTO
 66
1
 10
0.0000
 20
0.0000
 30
0.0000
 40
0.199898
 41
0.199898
  0
VERTEX
  8
TMC5160_BOB_V1_2_GTO
 10
-36.8300
 20
-13.9700
 30
0.0000
  0
VERTEX
  8
TMC5160_BOB_V1_2_GTO
 10
-34.2900
 20
-13.9700
 30
0.0000
  0
SEQEND
  0
POLYLINE
  8
TMC5160_BOB_V1_2_GTO
 66
1
 10
0.0000
 20
0.0000
 30
0.0000
 40
0.199898
 41
0.199898
  0
VERTEX
  8
TMC5160_BOB_V1_2_GTO
 10
-36.8300
 20
-13.9700
 30
0.0000
  0
VERTEX
  8
TMC5160_BOB_V1_2_GTO
 10
-36.8300
 20
-3.8100
 30
0.0000
  0
SEQEND
  0
POLYLINE
  8
TMC5160_BOB_V1_2_GTO
 66
1
 10
0.0000
 20
0.0000
 30
0.0000
 40
0.199898
 41
0.199898
  0
VERTEX
  8
TMC5160_BOB_V1_2_GTO
 10
-34.2900
 20
-13.9700
 30
0.0000
  0
VERTEX
  8
TMC5160_BOB_V1_2_GTO
 10
-34.2900
 20
-3.8100
 30
0.0000
  0
SEQEND
  0
POLYLINE
  8
TMC5160_BOB_V1_2_GTO
 66
1
 10
0.0000
 20
0.0000
 30
0.0000
 40
0.199898
 41
0.199898
  0
VERTEX
  8
TMC5160_BOB_V1_2_GTO
 10
-36.8300
 20
-3.8100
 30
0.0000
  0
VERTEX
  8
TMC5160_BOB_V1_2_GTO
 10
-34.2900
 20
-3.8100
 30
0.0000
  0
SEQEND
  0
POLYLINE
  8
TMC5160_BOB_V1_2_GTO
 66
1
 10
0.0000
 20
0.0000
 30
0.0000
 40
0.199898
 41
0.199898
  0
VERTEX
  8
TMC5160_BOB_V1_2_GTO
 10
-1.2700
 20
-19.0500
 30
0.0000
  0
VERTEX
  8
TMC5160_BOB_V1_2_GTO
 10
1.2700
 20
-19.0500
 30
0.0000
  0
SEQEND
  0
POLYLINE
  8
TMC5160_BOB_V1_2_GTO
 66
1
 10
0.0000
 20
0.0000
 30
0.0000
 40
0.199898
 41
0.199898
  0
VERTEX
  8
TMC5160_BOB_V1_2_GTO
 10
-1.2700
 20
-26.6700
 30
0.0000
  0
VERTEX
  8
TMC5160_BOB_V1_2_GTO
 10
-1.2700
 20
-19.0500
 30
0.0000
  0
SEQEND
  0
POLYLINE
  8
TMC5160_BOB_V1_2_GTO
 66
1
 10
0.0000
 20
0.0000
 30
0.0000
 40
0.199898
 41
0.199898
  0
VERTEX
  8
TMC5160_BOB_V1_2_GTO
 10
-1.2700
 20
-26.6700
 30
0.0000
  0
VERTEX
  8
TMC5160_BOB_V1_2_GTO
 10
1.2700
 20
-26.6700
 30
0.0000
  0
VERTEX
  8
TMC5160_BOB_V1_2_GTO
 10
1.2700
 20
-19.0500
 30
0.0000
  0
SEQEND
  0
POLYLINE
  8
TMC5160_BOB_V1_2_GTO
 66
1
 10
0.0000
 20
0.0000
 30
0.0000
 40
0.199898
 41
0.199898
  0
VERTEX
  8
TMC5160_BOB_V1_2_GTO
 10
-34.2900
 20
-3.8100
 30
0.0000
  0
VERTEX
  8
TMC5160_BOB_V1_2_GTO
 10
-34.2900
 20
1.2700
 30
0.0000
  0
SEQEND
  0
POLYLINE
  8
TMC5160_BOB_V1_2_GTO
 66
1
 10
0.0000
 20
0.0000
 30
0.0000
 40
0.199898
 41
0.199898
  0
VERTEX
  8
TMC5160_BOB_V1_2_GTO
 10
-36.8300
 20
-3.8100
 30
0.0000
  0
VERTEX
  8
TMC5160_BOB_V1_2_GTO
 10
-34.2900
 20
-3.8100
 30
0.0000
  0
SEQEND
  0
POLYLINE
  8
TMC5160_BOB_V1_2_GTO
 66
1
 10
0.0000
 20
0.0000
 30
0.0000
 40
0.199898
 41
0.199898
  0
VERTEX
  8
TMC5160_BOB_V1_2_GTO
 10
-36.8300
 20
-3.8100
 30
0.0000
  0
VERTEX
  8
TMC5160_BOB_V1_2_GTO
 10
-36.8300
 20
1.2700
 30
0.0000
  0
VERTEX
  8
TMC5160_BOB_V1_2_GTO
 10
-34.2900
 20
1.2700
 30
0.0000
  0
SEQEND
  0
POLYLINE
  8
TMC5160_BOB_V1_2_GTO
 66
1
 10
0.0000
 20
0.0000
 30
0.0000
 40
0.199898
 41
0.199898
  0
VERTEX
  8
TMC5160_BOB_V1_2_GTO
 10
1.2700
 20
-3.8100
 30
0.0000
  0
VERTEX
  8
TMC5160_BOB_V1_2_GTO
 10
1.2700
 20
1.2700
 30
0.0000
  0
SEQEND
  0
POLYLINE
  8
TMC5160_BOB_V1_2_GTO
 66
1
 10
0.0000
 20
0.0000
 30
0.0000
 40
0.199898
 41
0.199898
  0
VERTEX
  8
TMC5160_BOB_V1_2_GTO
 10
-1.2700
 20
-3.8100
 30
0.0000
  0
VERTEX
  8
TMC5160_BOB_V1_2_GTO
 10
1.2700
 20
-3.8100
 30
0.0000
  0
SEQEND
  0
POLYLINE
  8
TMC5160_BOB_V1_2_GTO
 66
1
 10
0.0000
 20
0.0000
 30
0.0000
 40
0.199898
 41
0.199898
  0
VERTEX
  8
TMC5160_BOB_V1_2_GTO
 10
-1.2700
 20
-3.8100
 30
0.0000
  0
VERTEX
  8
TMC5160_BOB_V1_2_GTO
 10
-1.2700
 20
1.2700
 30
0.0000
  0
VERTEX
  8
TMC5160_BOB_V1_2_GTO
 10
1.2700
 20
1.2700
 30
0.0000
  0
SEQEND
  0
POLYLINE
  8
TMC5160_BOB_V1_2_GTO
 66
1
 10
0.0000
 20
0.0000
 30
0.0000
 40
0.199898
 41
0.199898
  0
VERTEX
  8
TMC5160_BOB_V1_2_GTO
 10
1.2700
 20
-19.0500
 30
0.0000
  0
VERTEX
  8
TMC5160_BOB_V1_2_GTO
 10
1.2700
 20
-13.9700
 30
0.0000
  0
SEQEND
  0
POLYLINE
  8
TMC5160_BOB_V1_2_GTO
 66
1
 10
0.0000
 20
0.0000
 30
0.0000
 40
0.199898
 41
0.199898
  0
VERTEX
  8
TMC5160_BOB_V1_2_GTO
 10
-1.2700
 20
-19.0500
 30
0.0000
  0
VERTEX
  8
TMC5160_BOB_V1_2_GTO
 10
1.2700
 20
-19.0500
 30
0.0000
  0
SEQEND
  0
POLYLINE
  8
TMC5160_BOB_V1_2_GTO
 66
1
 10
0.0000
 20
0.0000
 30
0.0000
 40
0.199898
 41
0.199898
  0
VERTEX
  8
TMC5160_BOB_V1_2_GTO
 10
-1.2700
 20
-19.0500
 30
0.0000
  0
VERTEX
  8
TMC5160_BOB_V1_2_GTO
 10
-1.2700
 20
-13.9700
 30
0.0000
  0
VERTEX
  8
TMC5160_BOB_V1_2_GTO
 10
1.2700
 20
-13.9700
 30
0.0000
  0
SEQEND
  0
POLYLINE
  8
TMC5160_BOB_V1_2_GTO
 66
1
 10
0.0000
 20
0.0000
 30
0.0000
 40
0.199898
 41
0.199898
  0
VERTEX
  8
TMC5160_BOB_V1_2_GTO
 10
-27.748484
 20
-9.291828
 30
0.0000
  0
VERTEX
  8
TMC5160_BOB_V1_2_GTO
 10
-21.548598
 20
-9.291828
 30
0.0000
  0
SEQEND
  0
POLYLINE
  8
TMC5160_BOB_V1_2_GTO
 66
1
 10
0.0000
 20
0.0000
 30
0.0000
 40
0.199898
 41
0.199898
  0
VERTEX
  8
TMC5160_BOB_V1_2_GTO
 10
-27.748484
 20
-15.491714
 30
0.0000
  0
VERTEX
  8
TMC5160_BOB_V1_2_GTO
 10
-21.548598
 20
-15.491714
 30
0.0000
  0
VERTEX
  8
TMC5160_BOB_V1_2_GTO
 10
-21.548598
 20
-9.291828
 30
0.0000
  0
SEQEND
  0
POLYLINE
  8
TMC5160_BOB_V1_2_GTO
 66
1
 10
0.0000
 20
0.0000
 30
0.0000
 40
0.199898
 41
0.199898
  0
VERTEX
  8
TMC5160_BOB_V1_2_GTO
 10
-27.748484
 20
-15.491714
 30
0.0000
  0
VERTEX
  8
TMC5160_BOB_V1_2_GTO
 10
-27.748484
 20
-9.291828
 30
0.0000
  0
SEQEND
  0
POLYLINE
  8
TMC5160_BOB_V1_2_GTO
 66
1
 10
0.0000
 20
0.0000
 30
0.0000
 40
0.199898
 41
0.199898
  0
VERTEX
  8
TMC5160_BOB_V1_2_GTO
 10
-11.786108
 20
-26.020522
 30
0.0000
  0
VERTEX
  8
TMC5160_BOB_V1_2_GTO
 10
-8.586216
 20
-26.020522
 30
0.0000
  0
SEQEND
  0
POLYLINE
  8
TMC5160_BOB_V1_2_GTO
 66
1
 10
0.0000
 20
0.0000
 30
0.0000
 40
0.199898
 41
0.199898
  0
VERTEX
  8
TMC5160_BOB_V1_2_GTO
 10
-11.786108
 20
-21.020532
 30
0.0000
  0
VERTEX
  8
TMC5160_BOB_V1_2_GTO
 10
-8.586216
 20
-21.020532
 30
0.0000
  0
SEQEND
  0
POLYLINE
  8
TMC5160_BOB_V1_2_GTO
 66
1
 10
0.0000
 20
0.0000
 30
0.0000
 40
0.199898
 41
0.199898
  0
VERTEX
  8
TMC5160_BOB_V1_2_GTO
 10
-8.586216
 20
-26.020522
 30
0.0000
  0
VERTEX
  8
TMC5160_BOB_V1_2_GTO
 10
-8.586216
 20
-21.020532
 30
0.0000
  0
SEQEND
  0
POLYLINE
  8
TMC5160_BOB_V1_2_GTO
 66
1
 10
0.0000
 20
0.0000
 30
0.0000
 40
0.199898
 41
0.199898
  0
VERTEX
  8
TMC5160_BOB_V1_2_GTO
 10
-11.786108
 20
-26.020522
 30
0.0000
  0
VERTEX
  8
TMC5160_BOB_V1_2_GTO
 10
-11.786108
 20
-21.020532
 30
0.0000
  0
SEQEND
  0
POLYLINE
  8
TMC5160_BOB_V1_2_GTO
 66
1
 10
0.0000
 20
0.0000
 30
0.0000
 40
0.199898
 41
0.199898
  0
VERTEX
  8
TMC5160_BOB_V1_2_GTO
 10
-19.406108
 20
-26.020522
 30
0.0000
  0
VERTEX
  8
TMC5160_BOB_V1_2_GTO
 10
-16.206216
 20
-26.020522
 30
0.0000
  0
SEQEND
  0
POLYLINE
  8
TMC5160_BOB_V1_2_GTO
 66
1
 10
0.0000
 20
0.0000
 30
0.0000
 40
0.199898
 41
0.199898
  0
VERTEX
  8
TMC5160_BOB_V1_2_GTO
 10
-19.406108
 20
-21.020532
 30
0.0000
  0
VERTEX
  8
TMC5160_BOB_V1_2_GTO
 10
-16.206216
 20
-21.020532
 30
0.0000
  0
SEQEND
  0
POLYLINE
  8
TMC5160_BOB_V1_2_GTO
 66
1
 10
0.0000
 20
0.0000
 30
0.0000
 40
0.199898
 41
0.199898
  0
VERTEX
  8
TMC5160_BOB_V1_2_GTO
 10
-16.206216
 20
-26.020522
 30
0.0000
  0
VERTEX
  8
TMC5160_BOB_V1_2_GTO
 10
-16.206216
 20
-21.020532
 30
0.0000
  0
SEQEND
  0
POLYLINE
  8
TMC5160_BOB_V1_2_GTO
 66
1
 10
0.0000
 20
0.0000
 30
0.0000
 40
0.199898
 41
0.199898
  0
VERTEX
  8
TMC5160_BOB_V1_2_GTO
 10
-19.406108
 20
-26.020522
 30
0.0000
  0
VERTEX
  8
TMC5160_BOB_V1_2_GTO
 10
-19.406108
 20
-21.020532
 30
0.0000
  0
SEQEND
  0
POLYLINE
  8
TMC5160_BOB_V1_2_GTO
 66
1
 10
0.0000
 20
0.0000
 30
0.0000
 40
0.199898
 41
0.199898
  0
VERTEX
  8
TMC5160_BOB_V1_2_GTO
 10
-12.675108
 20
-4.379722
 30
0.0000
  0
VERTEX
  8
TMC5160_BOB_V1_2_GTO
 10
-9.475216
 20
-4.379722
 30
0.0000
  0
SEQEND
  0
POLYLINE
  8
TMC5160_BOB_V1_2_GTO
 66
1
 10
0.0000
 20
0.0000
 30
0.0000
 40
0.199898
 41
0.199898
  0
VERTEX
  8
TMC5160_BOB_V1_2_GTO
 10
-12.675108
 20
0.620268
 30
0.0000
  0
VERTEX
  8
TMC5160_BOB_V1_2_GTO
 10
-9.475216
 20
0.620268
 30
0.0000
  0
SEQEND
  0
POLYLINE
  8
TMC5160_BOB_V1_2_GTO
 66
1
 10
0.0000
 20
0.0000
 30
0.0000
 40
0.199898
 41
0.199898
  0
VERTEX
  8
TMC5160_BOB_V1_2_GTO
 10
-9.475216
 20
-4.379722
 30
0.0000
  0
VERTEX
  8
TMC5160_BOB_V1_2_GTO
 10
-9.475216
 20
0.620268
 30
0.0000
  0
SEQEND
  0
POLYLINE
  8
TMC5160_BOB_V1_2_GTO
 66
1
 10
0.0000
 20
0.0000
 30
0.0000
 40
0.199898
 41
0.199898
  0
VERTEX
  8
TMC5160_BOB_V1_2_GTO
 10
-12.675108
 20
-4.379722
 30
0.0000
  0
VERTEX
  8
TMC5160_BOB_V1_2_GTO
 10
-12.675108
 20
0.620268
 30
0.0000
  0
SEQEND
  0
POLYLINE
  8
TMC5160_BOB_V1_2_GTO
 66
1
 10
0.0000
 20
0.0000
 30
0.0000
 40
0.199898
 41
0.199898
  0
VERTEX
  8
TMC5160_BOB_V1_2_GTO
 10
-20.295108
 20
-4.379722
 30
0.0000
  0
VERTEX
  8
TMC5160_BOB_V1_2_GTO
 10
-17.095216
 20
-4.379722
 30
0.0000
  0
SEQEND
  0
POLYLINE
  8
TMC5160_BOB_V1_2_GTO
 66
1
 10
0.0000
 20
0.0000
 30
0.0000
 40
0.199898
 41
0.199898
  0
VERTEX
  8
TMC5160_BOB_V1_2_GTO
 10
-20.295108
 20
0.620268
 30
0.0000
  0
VERTEX
  8
TMC5160_BOB_V1_2_GTO
 10
-17.095216
 20
0.620268
 30
0.0000
  0
SEQEND
  0
POLYLINE
  8
TMC5160_BOB_V1_2_GTO
 66
1
 10
0.0000
 20
0.0000
 30
0.0000
 40
0.199898
 41
0.199898
  0
VERTEX
  8
TMC5160_BOB_V1_2_GTO
 10
-17.095216
 20
-4.379722
 30
0.0000
  0
VERTEX
  8
TMC5160_BOB_V1_2_GTO
 10
-17.095216
 20
0.620268
 30
0.0000
  0
SEQEND
  0
POLYLINE
  8
TMC5160_BOB_V1_2_GTO
 66
1
 10
0.0000
 20
0.0000
 30
0.0000
 40
0.199898
 41
0.199898
  0
VERTEX
  8
TMC5160_BOB_V1_2_GTO
 10
-20.295108
 20
-4.379722
 30
0.0000
  0
VERTEX
  8
TMC5160_BOB_V1_2_GTO
 10
-20.295108
 20
0.620268
 30
0.0000
  0
SEQEND
  0
POLYLINE
  8
TMC5160_BOB_V1_2_GTO
 66
1
 10
0.0000
 20
0.0000
 30
0.0000
 40
0.299974
 41
0.299974
  0
VERTEX
  8
TMC5160_BOB_V1_2_GTO
 10
-9.593072
 20
-12.8016
 30
0.0000
  0
VERTEX
  8
TMC5160_BOB_V1_2_GTO
 10
-8.323072
 20
-12.8016
 30
0.0000
  0
SEQEND
  0
POLYLINE
  8
TMC5160_BOB_V1_2_GTO
 66
1
 10
0.0000
 20
0.0000
 30
0.0000
 40
0.299974
 41
0.299974
  0
VERTEX
  8
TMC5160_BOB_V1_2_GTO
 10
-8.958072
 20
-13.4366
 30
0.0000
  0
VERTEX
  8
TMC5160_BOB_V1_2_GTO
 10
-8.958072
 20
-12.1666
 30
0.0000
  0
SEQEND
  0
POLYLINE
  8
TMC5160_BOB_V1_2_GTO
 66
1
 10
0.0000
 20
0.0000
 30
0.0000
 40
0.299974
 41
0.299974
  0
VERTEX
  8
TMC5160_BOB_V1_2_GTO
 10
-6.418072
 20
-13.4366
 30
0.0000
  0
VERTEX
  8
TMC5160_BOB_V1_2_GTO
 10
-6.418072
 20
-12.1666
 30
0.0000
  0
SEQEND
  0
POLYLINE
  8
TMC5160_BOB_V1_2_GTO
 66
1
 10
0.0000
 20
0.0000
 30
0.0000
 40
0.1778
 41
0.1778
  0
VERTEX
  8
TMC5160_BOB_V1_2_GTO
 10
-14.344142
 20
-19.56435
 30
0.0000
  0
VERTEX
  8
TMC5160_BOB_V1_2_GTO
 10
-14.344142
 20
-18.971768
 30
0.0000
  0
VERTEX
  8
TMC5160_BOB_V1_2_GTO
 10
-14.344142
 20
-19.267932
 30
0.0000
  0
VERTEX
  8
TMC5160_BOB_V1_2_GTO
 10
-13.455396
 20
-19.267932
 30
0.0000
  0
SEQEND
  0
POLYLINE
  8
TMC5160_BOB_V1_2_GTO
 66
1
 10
0.0000
 20
0.0000
 30
0.0000
 40
0.1778
 41
0.1778
  0
VERTEX
  8
TMC5160_BOB_V1_2_GTO
 10
-13.455396
 20
-18.675604
 30
0.0000
  0
VERTEX
  8
TMC5160_BOB_V1_2_GTO
 10
-14.344142
 20
-18.675604
 30
0.0000
  0
VERTEX
  8
TMC5160_BOB_V1_2_GTO
 10
-14.047978
 20
-18.379186
 30
0.0000
  0
VERTEX
  8
TMC5160_BOB_V1_2_GTO
 10
-14.344142
 20
-18.083022
 30
0.0000
  0
VERTEX
  8
TMC5160_BOB_V1_2_GTO
 10
-13.455396
 20
-18.083022
 30
0.0000
  0
SEQEND
  0
POLYLINE
  8
TMC5160_BOB_V1_2_GTO
 66
1
 10
0.0000
 20
0.0000
 30
0.0000
 40
0.1778
 41
0.1778
  0
VERTEX
  8
TMC5160_BOB_V1_2_GTO
 10
-14.19606
 20
-17.194276
 30
0.0000
  0
VERTEX
  8
TMC5160_BOB_V1_2_GTO
 10
-14.344142
 20
-17.342358
 30
0.0000
  0
VERTEX
  8
TMC5160_BOB_V1_2_GTO
 10
-14.344142
 20
-17.638776
 30
0.0000
  0
VERTEX
  8
TMC5160_BOB_V1_2_GTO
 10
-14.19606
 20
-17.786858
 30
0.0000
  0
VERTEX
  8
TMC5160_BOB_V1_2_GTO
 10
-13.603478
 20
-17.786858
 30
0.0000
  0
VERTEX
  8
TMC5160_BOB_V1_2_GTO
 10
-13.455396
 20
-17.638776
 30
0.0000
  0
VERTEX
  8
TMC5160_BOB_V1_2_GTO
 10
-13.455396
 20
-17.342358
 30
0.0000
  0
VERTEX
  8
TMC5160_BOB_V1_2_GTO
 10
-13.603478
 20
-17.194276
 30
0.0000
  0
SEQEND
  0
POLYLINE
  8
TMC5160_BOB_V1_2_GTO
 66
1
 10
0.0000
 20
0.0000
 30
0.0000
 40
0.1778
 41
0.1778
  0
VERTEX
  8
TMC5160_BOB_V1_2_GTO
 10
-14.344142
 20
-16.30553
 30
0.0000
  0
VERTEX
  8
TMC5160_BOB_V1_2_GTO
 10
-14.344142
 20
-16.898112
 30
0.0000
  0
VERTEX
  8
TMC5160_BOB_V1_2_GTO
 10
-13.899896
 20
-16.898112
 30
0.0000
  0
VERTEX
  8
TMC5160_BOB_V1_2_GTO
 10
-14.047978
 20
-16.601694
 30
0.0000
  0
VERTEX
  8
TMC5160_BOB_V1_2_GTO
 10
-14.047978
 20
-16.453612
 30
0.0000
  0
VERTEX
  8
TMC5160_BOB_V1_2_GTO
 10
-13.899896
 20
-16.30553
 30
0.0000
  0
VERTEX
  8
TMC5160_BOB_V1_2_GTO
 10
-13.603478
 20
-16.30553
 30
0.0000
  0
VERTEX
  8
TMC5160_BOB_V1_2_GTO
 10
-13.455396
 20
-16.453612
 30
0.0000
  0
VERTEX
  8
TMC5160_BOB_V1_2_GTO
 10
-13.455396
 20
-16.75003
 30
0.0000
  0
VERTEX
  8
TMC5160_BOB_V1_2_GTO
 10
-13.603478
 20
-16.898112
 30
0.0000
  0
SEQEND
  0
POLYLINE
  8
TMC5160_BOB_V1_2_GTO
 66
1
 10
0.0000
 20
0.0000
 30
0.0000
 40
0.1778
 41
0.1778
  0
VERTEX
  8
TMC5160_BOB_V1_2_GTO
 10
-13.455396
 20
-16.009366
 30
0.0000
  0
VERTEX
  8
TMC5160_BOB_V1_2_GTO
 10
-13.455396
 20
-15.713202
 30
0.0000
  0
VERTEX
  8
TMC5160_BOB_V1_2_GTO
 10
-13.455396
 20
-15.861284
 30
0.0000
  0
VERTEX
  8
TMC5160_BOB_V1_2_GTO
 10
-14.344142
 20
-15.861284
 30
0.0000
  0
VERTEX
  8
TMC5160_BOB_V1_2_GTO
 10
-14.19606
 20
-16.009366
 30
0.0000
  0
SEQEND
  0
POLYLINE
  8
TMC5160_BOB_V1_2_GTO
 66
1
 10
0.0000
 20
0.0000
 30
0.0000
 40
0.1778
 41
0.1778
  0
VERTEX
  8
TMC5160_BOB_V1_2_GTO
 10
-14.344142
 20
-14.676374
 30
0.0000
  0
VERTEX
  8
TMC5160_BOB_V1_2_GTO
 10
-14.19606
 20
-14.972538
 30
0.0000
  0
VERTEX
  8
TMC5160_BOB_V1_2_GTO
 10
-13.899896
 20
-15.268702
 30
0.0000
  0
VERTEX
  8
TMC5160_BOB_V1_2_GTO
 10
-13.603478
 20
-15.268702
 30
0.0000
  0
VERTEX
  8
TMC5160_BOB_V1_2_GTO
 10
-13.455396
 20
-15.12062
 30
0.0000
  0
VERTEX
  8
TMC5160_BOB_V1_2_GTO
 10
-13.455396
 20
-14.824456
 30
0.0000
  0
VERTEX
  8
TMC5160_BOB_V1_2_GTO
 10
-13.603478
 20
-14.676374
 30
0.0000
  0
VERTEX
  8
TMC5160_BOB_V1_2_GTO
 10
-13.751814
 20
-14.676374
 30
0.0000
  0
VERTEX
  8
TMC5160_BOB_V1_2_GTO
 10
-13.899896
 20
-14.824456
 30
0.0000
  0
VERTEX
  8
TMC5160_BOB_V1_2_GTO
 10
-13.899896
 20
-15.268702
 30
0.0000
  0
SEQEND
  0
POLYLINE
  8
TMC5160_BOB_V1_2_GTO
 66
1
 10
0.0000
 20
0.0000
 30
0.0000
 40
0.1778
 41
0.1778
  0
VERTEX
  8
TMC5160_BOB_V1_2_GTO
 10
-14.19606
 20
-14.379956
 30
0.0000
  0
VERTEX
  8
TMC5160_BOB_V1_2_GTO
 10
-14.344142
 20
-14.231874
 30
0.0000
  0
VERTEX
  8
TMC5160_BOB_V1_2_GTO
 10
-14.344142
 20
-13.93571
 30
0.0000
  0
VERTEX
  8
TMC5160_BOB_V1_2_GTO
 10
-14.19606
 20
-13.787628
 30
0.0000
  0
VERTEX
  8
TMC5160_BOB_V1_2_GTO
 10
-13.603478
 20
-13.787628
 30
0.0000
  0
VERTEX
  8
TMC5160_BOB_V1_2_GTO
 10
-13.455396
 20
-13.93571
 30
0.0000
  0
VERTEX
  8
TMC5160_BOB_V1_2_GTO
 10
-13.455396
 20
-14.231874
 30
0.0000
  0
VERTEX
  8
TMC5160_BOB_V1_2_GTO
 10
-13.603478
 20
-14.379956
 30
0.0000
  0
VERTEX
  8
TMC5160_BOB_V1_2_GTO
 10
-14.19606
 20
-14.379956
 30
0.0000
  0
SEQEND
  0
POLYLINE
  8
TMC5160_BOB_V1_2_GTO
 66
1
 10
0.0000
 20
0.0000
 30
0.0000
 40
0.1778
 41
0.1778
  0
VERTEX
  8
TMC5160_BOB_V1_2_GTO
 10
-13.307314
 20
-13.49121
 30
0.0000
  0
VERTEX
  8
TMC5160_BOB_V1_2_GTO
 10
-13.307314
 20
-12.898882
 30
0.0000
  0
SEQEND
  0
POLYLINE
  8
TMC5160_BOB_V1_2_GTO
 66
1
 10
0.0000
 20
0.0000
 30
0.0000
 40
0.1778
 41
0.1778
  0
VERTEX
  8
TMC5160_BOB_V1_2_GTO
 10
-14.344142
 20
-12.602718
 30
0.0000
  0
VERTEX
  8
TMC5160_BOB_V1_2_GTO
 10
-13.455396
 20
-12.602718
 30
0.0000
  0
VERTEX
  8
TMC5160_BOB_V1_2_GTO
 10
-13.455396
 20
-12.158218
 30
0.0000
  0
VERTEX
  8
TMC5160_BOB_V1_2_GTO
 10
-13.603478
 20
-12.010136
 30
0.0000
  0
VERTEX
  8
TMC5160_BOB_V1_2_GTO
 10
-13.751814
 20
-12.010136
 30
0.0000
  0
VERTEX
  8
TMC5160_BOB_V1_2_GTO
 10
-13.899896
 20
-12.158218
 30
0.0000
  0
VERTEX
  8
TMC5160_BOB_V1_2_GTO
 10
-13.899896
 20
-12.602718
 30
0.0000
  0
VERTEX
  8
TMC5160_BOB_V1_2_GTO
 10
-13.899896
 20
-12.158218
 30
0.0000
  0
VERTEX
  8
TMC5160_BOB_V1_2_GTO
 10
-14.047978
 20
-12.010136
 30
0.0000
  0
VERTEX
  8
TMC5160_BOB_V1_2_GTO
 10
-14.19606
 20
-12.010136
 30
0.0000
  0
VERTEX
  8
TMC5160_BOB_V1_2_GTO
 10
-14.344142
 20
-12.158218
 30
0.0000
  0
VERTEX
  8
TMC5160_BOB_V1_2_GTO
 10
-14.344142
 20
-12.602718
 30
0.0000
  0
SEQEND
  0
POLYLINE
  8
TMC5160_BOB_V1_2_GTO
 66
1
 10
0.0000
 20
0.0000
 30
0.0000
 40
0.1778
 41
0.1778
  0
VERTEX
  8
TMC5160_BOB_V1_2_GTO
 10
-14.344142
 20
-11.269472
 30
0.0000
  0
VERTEX
  8
TMC5160_BOB_V1_2_GTO
 10
-14.344142
 20
-11.56589
 30
0.0000
  0
VERTEX
  8
TMC5160_BOB_V1_2_GTO
 10
-14.19606
 20
-11.713972
 30
0.0000
  0
VERTEX
  8
TMC5160_BOB_V1_2_GTO
 10
-13.603478
 20
-11.713972
 30
0.0000
  0
VERTEX
  8
TMC5160_BOB_V1_2_GTO
 10
-13.455396
 20
-11.56589
 30
0.0000
  0
VERTEX
  8
TMC5160_BOB_V1_2_GTO
 10
-13.455396
 20
-11.269472
 30
0.0000
  0
VERTEX
  8
TMC5160_BOB_V1_2_GTO
 10
-13.603478
 20
-11.12139
 30
0.0000
  0
VERTEX
  8
TMC5160_BOB_V1_2_GTO
 10
-14.19606
 20
-11.12139
 30
0.0000
  0
VERTEX
  8
TMC5160_BOB_V1_2_GTO
 10
-14.344142
 20
-11.269472
 30
0.0000
  0
SEQEND
  0
POLYLINE
  8
TMC5160_BOB_V1_2_GTO
 66
1
 10
0.0000
 20
0.0000
 30
0.0000
 40
0.1778
 41
0.1778
  0
VERTEX
  8
TMC5160_BOB_V1_2_GTO
 10
-14.344142
 20
-10.825226
 30
0.0000
  0
VERTEX
  8
TMC5160_BOB_V1_2_GTO
 10
-13.455396
 20
-10.825226
 30
0.0000
  0
VERTEX
  8
TMC5160_BOB_V1_2_GTO
 10
-13.455396
 20
-10.38098
 30
0.0000
  0
VERTEX
  8
TMC5160_BOB_V1_2_GTO
 10
-13.603478
 20
-10.232644
 30
0.0000
  0
VERTEX
  8
TMC5160_BOB_V1_2_GTO
 10
-13.751814
 20
-10.232644
 30
0.0000
  0
VERTEX
  8
TMC5160_BOB_V1_2_GTO
 10
-13.899896
 20
-10.38098
 30
0.0000
  0
VERTEX
  8
TMC5160_BOB_V1_2_GTO
 10
-13.899896
 20
-10.825226
 30
0.0000
  0
VERTEX
  8
TMC5160_BOB_V1_2_GTO
 10
-13.899896
 20
-10.38098
 30
0.0000
  0
VERTEX
  8
TMC5160_BOB_V1_2_GTO
 10
-14.047978
 20
-10.232644
 30
0.0000
  0
VERTEX
  8
TMC5160_BOB_V1_2_GTO
 10
-14.19606
 20
-10.232644
 30
0.0000
  0
VERTEX
  8
TMC5160_BOB_V1_2_GTO
 10
-14.344142
 20
-10.38098
 30
0.0000
  0
VERTEX
  8
TMC5160_BOB_V1_2_GTO
 10
-14.344142
 20
-10.825226
 30
0.0000
  0
SEQEND
  0
POLYLINE
  8
TMC5160_BOB_V1_2_GTO
 66
1
 10
0.0000
 20
0.0000
 30
0.0000
 40
0.1778
 41
0.1778
  0
VERTEX
  8
TMC5160_BOB_V1_2_GTO
 10
-13.307314
 20
-9.93648
 30
0.0000
  0
VERTEX
  8
TMC5160_BOB_V1_2_GTO
 10
-13.307314
 20
-9.344152
 30
0.0000
  0
SEQEND
  0
POLYLINE
  8
TMC5160_BOB_V1_2_GTO
 66
1
 10
0.0000
 20
0.0000
 30
0.0000
 40
0.1778
 41
0.1778
  0
VERTEX
  8
TMC5160_BOB_V1_2_GTO
 10
-14.344142
 20
-9.047734
 30
0.0000
  0
VERTEX
  8
TMC5160_BOB_V1_2_GTO
 10
-13.751814
 20
-9.047734
 30
0.0000
  0
VERTEX
  8
TMC5160_BOB_V1_2_GTO
 10
-13.455396
 20
-8.75157
 30
0.0000
  0
VERTEX
  8
TMC5160_BOB_V1_2_GTO
 10
-13.751814
 20
-8.455406
 30
0.0000
  0
VERTEX
  8
TMC5160_BOB_V1_2_GTO
 10
-14.344142
 20
-8.455406
 30
0.0000
  0
SEQEND
  0
POLYLINE
  8
TMC5160_BOB_V1_2_GTO
 66
1
 10
0.0000
 20
0.0000
 30
0.0000
 40
0.1778
 41
0.1778
  0
VERTEX
  8
TMC5160_BOB_V1_2_GTO
 10
-13.455396
 20
-8.158988
 30
0.0000
  0
VERTEX
  8
TMC5160_BOB_V1_2_GTO
 10
-13.455396
 20
-7.862824
 30
0.0000
  0
VERTEX
  8
TMC5160_BOB_V1_2_GTO
 10
-13.455396
 20
-8.010906
 30
0.0000
  0
VERTEX
  8
TMC5160_BOB_V1_2_GTO
 10
-14.344142
 20
-8.010906
 30
0.0000
  0
VERTEX
  8
TMC5160_BOB_V1_2_GTO
 10
-14.19606
 20
-8.158988
 30
0.0000
  0
SEQEND
  0
POLYLINE
  8
TMC5160_BOB_V1_2_GTO
 66
1
 10
0.0000
 20
0.0000
 30
0.0000
 40
0.1778
 41
0.1778
  0
VERTEX
  8
TMC5160_BOB_V1_2_GTO
 10
-13.455396
 20
-7.418578
 30
0.0000
  0
VERTEX
  8
TMC5160_BOB_V1_2_GTO
 10
-13.603478
 20
-7.418578
 30
0.0000
  0
VERTEX
  8
TMC5160_BOB_V1_2_GTO
 10
-13.603478
 20
-7.270242
 30
0.0000
  0
VERTEX
  8
TMC5160_BOB_V1_2_GTO
 10
-13.455396
 20
-7.270242
 30
0.0000
  0
VERTEX
  8
TMC5160_BOB_V1_2_GTO
 10
-13.455396
 20
-7.418578
 30
0.0000
  0
SEQEND
  0
POLYLINE
  8
TMC5160_BOB_V1_2_GTO
 66
1
 10
0.0000
 20
0.0000
 30
0.0000
 40
0.1778
 41
0.1778
  0
VERTEX
  8
TMC5160_BOB_V1_2_GTO
 10
-13.455396
 20
-6.085332
 30
0.0000
  0
VERTEX
  8
TMC5160_BOB_V1_2_GTO
 10
-13.455396
 20
-6.677914
 30
0.0000
  0
VERTEX
  8
TMC5160_BOB_V1_2_GTO
 10
-14.047978
 20
-6.085332
 30
0.0000
  0
VERTEX
  8
TMC5160_BOB_V1_2_GTO
 10
-14.19606
 20
-6.085332
 30
0.0000
  0
VERTEX
  8
TMC5160_BOB_V1_2_GTO
 10
-14.344142
 20
-6.233414
 30
0.0000
  0
VERTEX
  8
TMC5160_BOB_V1_2_GTO
 10
-14.344142
 20
-6.529832
 30
0.0000
  0
VERTEX
  8
TMC5160_BOB_V1_2_GTO
 10
-14.19606
 20
-6.677914
 30
0.0000
  0
SEQEND
  0
POLYLINE
  8
TMC5160_BOB_V1_2_GTO
 66
1
 10
0.0000
 20
0.0000
 30
0.0000
 40
0.1778
 41
0.1778
  0
VERTEX
  8
TMC5160_BOB_V1_2_GTO
 10
-33.633664
 20
0.507746
 30
0.0000
  0
VERTEX
  8
TMC5160_BOB_V1_2_GTO
 10
-33.633664
 20
-0.169418
 30
0.0000
  0
VERTEX
  8
TMC5160_BOB_V1_2_GTO
 10
-33.295082
 20
-0.507746
 30
0.0000
  0
VERTEX
  8
TMC5160_BOB_V1_2_GTO
 10
-32.9565
 20
-0.169418
 30
0.0000
  0
VERTEX
  8
TMC5160_BOB_V1_2_GTO
 10
-32.9565
 20
0.507746
 30
0.0000
  0
SEQEND
  0
POLYLINE
  8
TMC5160_BOB_V1_2_GTO
 66
1
 10
0.0000
 20
0.0000
 30
0.0000
 40
0.1778
 41
0.1778
  0
VERTEX
  8
TMC5160_BOB_V1_2_GTO
 10
-31.940754
 20
0.338582
 30
0.0000
  0
VERTEX
  8
TMC5160_BOB_V1_2_GTO
 10
-32.110172
 20
0.507746
 30
0.0000
  0
VERTEX
  8
TMC5160_BOB_V1_2_GTO
 10
-32.448754
 20
0.507746
 30
0.0000
  0
VERTEX
  8
TMC5160_BOB_V1_2_GTO
 10
-32.617918
 20
0.338582
 30
0.0000
  0
VERTEX
  8
TMC5160_BOB_V1_2_GTO
 10
-32.617918
 20
-0.338582
 30
0.0000
  0
VERTEX
  8
TMC5160_BOB_V1_2_GTO
 10
-32.448754
 20
-0.507746
 30
0.0000
  0
VERTEX
  8
TMC5160_BOB_V1_2_GTO
 10
-32.110172
 20
-0.507746
 30
0.0000
  0
VERTEX
  8
TMC5160_BOB_V1_2_GTO
 10
-31.940754
 20
-0.338582
 30
0.0000
  0
SEQEND
  0
POLYLINE
  8
TMC5160_BOB_V1_2_GTO
 66
1
 10
0.0000
 20
0.0000
 30
0.0000
 40
0.1778
 41
0.1778
  0
VERTEX
  8
TMC5160_BOB_V1_2_GTO
 10
-30.925262
 20
0.338582
 30
0.0000
  0
VERTEX
  8
TMC5160_BOB_V1_2_GTO
 10
-31.094426
 20
0.507746
 30
0.0000
  0
VERTEX
  8
TMC5160_BOB_V1_2_GTO
 10
-31.433008
 20
0.507746
 30
0.0000
  0
VERTEX
  8
TMC5160_BOB_V1_2_GTO
 10
-31.602172
 20
0.338582
 30
0.0000
  0
VERTEX
  8
TMC5160_BOB_V1_2_GTO
 10
-31.602172
 20
-0.338582
 30
0.0000
  0
VERTEX
  8
TMC5160_BOB_V1_2_GTO
 10
-31.433008
 20
-0.507746
 30
0.0000
  0
VERTEX
  8
TMC5160_BOB_V1_2_GTO
 10
-31.094426
 20
-0.507746
 30
0.0000
  0
VERTEX
  8
TMC5160_BOB_V1_2_GTO
 10
-30.925262
 20
-0.338582
 30
0.0000
  0
SEQEND
  0
POLYLINE
  8
TMC5160_BOB_V1_2_GTO
 66
1
 10
0.0000
 20
0.0000
 30
0.0000
 40
0.1778
 41
0.1778
  0
VERTEX
  8
TMC5160_BOB_V1_2_GTO
 10
-30.58668
 20
-0.677164
 30
0.0000
  0
VERTEX
  8
TMC5160_BOB_V1_2_GTO
 10
-29.909516
 20
-0.677164
 30
0.0000
  0
SEQEND
  0
POLYLINE
  8
TMC5160_BOB_V1_2_GTO
 66
1
 10
0.0000
 20
0.0000
 30
0.0000
 40
0.1778
 41
0.1778
  0
VERTEX
  8
TMC5160_BOB_V1_2_GTO
 10
-29.570934
 20
0.507746
 30
0.0000
  0
VERTEX
  8
TMC5160_BOB_V1_2_GTO
 10
-29.232352
 20
0.507746
 30
0.0000
  0
VERTEX
  8
TMC5160_BOB_V1_2_GTO
 10
-29.401516
 20
0.507746
 30
0.0000
  0
VERTEX
  8
TMC5160_BOB_V1_2_GTO
 10
-29.401516
 20
-0.507746
 30
0.0000
  0
VERTEX
  8
TMC5160_BOB_V1_2_GTO
 10
-29.570934
 20
-0.507746
 30
0.0000
  0
VERTEX
  8
TMC5160_BOB_V1_2_GTO
 10
-29.232352
 20
-0.507746
 30
0.0000
  0
SEQEND
  0
POLYLINE
  8
TMC5160_BOB_V1_2_GTO
 66
1
 10
0.0000
 20
0.0000
 30
0.0000
 40
0.1778
 41
0.1778
  0
VERTEX
  8
TMC5160_BOB_V1_2_GTO
 10
-28.216606
 20
0.507746
 30
0.0000
  0
VERTEX
  8
TMC5160_BOB_V1_2_GTO
 10
-28.555188
 20
0.507746
 30
0.0000
  0
VERTEX
  8
TMC5160_BOB_V1_2_GTO
 10
-28.724606
 20
0.338582
 30
0.0000
  0
VERTEX
  8
TMC5160_BOB_V1_2_GTO
 10
-28.724606
 20
-0.338582
 30
0.0000
  0
VERTEX
  8
TMC5160_BOB_V1_2_GTO
 10
-28.555188
 20
-0.507746
 30
0.0000
  0
VERTEX
  8
TMC5160_BOB_V1_2_GTO
 10
-28.216606
 20
-0.507746
 30
0.0000
  0
VERTEX
  8
TMC5160_BOB_V1_2_GTO
 10
-28.047442
 20
-0.338582
 30
0.0000
  0
VERTEX
  8
TMC5160_BOB_V1_2_GTO
 10
-28.047442
 20
0.338582
 30
0.0000
  0
VERTEX
  8
TMC5160_BOB_V1_2_GTO
 10
-28.216606
 20
0.507746
 30
0.0000
  0
SEQEND
  0
POLYLINE
  8
TMC5160_BOB_V1_2_GTO
 66
1
 10
0.0000
 20
0.0000
 30
0.0000
 40
0.1778
 41
0.1778
  0
VERTEX
  8
TMC5160_BOB_V1_2_GTO
 10
-32.952436
 20
-2.201418
 30
0.0000
  0
VERTEX
  8
TMC5160_BOB_V1_2_GTO
 10
-33.121854
 20
-2.032254
 30
0.0000
  0
VERTEX
  8
TMC5160_BOB_V1_2_GTO
 10
-33.460436
 20
-2.032254
 30
0.0000
  0
VERTEX
  8
TMC5160_BOB_V1_2_GTO
 10
-33.6296
 20
-2.201418
 30
0.0000
  0
VERTEX
  8
TMC5160_BOB_V1_2_GTO
 10
-33.6296
 20
-2.878582
 30
0.0000
  0
VERTEX
  8
TMC5160_BOB_V1_2_GTO
 10
-33.460436
 20
-3.047746
 30
0.0000
  0
VERTEX
  8
TMC5160_BOB_V1_2_GTO
 10
-33.121854
 20
-3.047746
 30
0.0000
  0
VERTEX
  8
TMC5160_BOB_V1_2_GTO
 10
-32.952436
 20
-2.878582
 30
0.0000
  0
VERTEX
  8
TMC5160_BOB_V1_2_GTO
 10
-32.952436
 20
-2.5400
 30
0.0000
  0
VERTEX
  8
TMC5160_BOB_V1_2_GTO
 10
-33.291018
 20
-2.5400
 30
0.0000
  0
SEQEND
  0
POLYLINE
  8
TMC5160_BOB_V1_2_GTO
 66
1
 10
0.0000
 20
0.0000
 30
0.0000
 40
0.1778
 41
0.1778
  0
VERTEX
  8
TMC5160_BOB_V1_2_GTO
 10
-32.613854
 20
-3.047746
 30
0.0000
  0
VERTEX
  8
TMC5160_BOB_V1_2_GTO
 10
-32.613854
 20
-2.032254
 30
0.0000
  0
VERTEX
  8
TMC5160_BOB_V1_2_GTO
 10
-31.93669
 20
-3.047746
 30
0.0000
  0
VERTEX
  8
TMC5160_BOB_V1_2_GTO
 10
-31.93669
 20
-2.032254
 30
0.0000
  0
SEQEND
  0
POLYLINE
  8
TMC5160_BOB_V1_2_GTO
 66
1
 10
0.0000
 20
0.0000
 30
0.0000
 40
0.1778
 41
0.1778
  0
VERTEX
  8
TMC5160_BOB_V1_2_GTO
 10
-31.598362
 20
-2.032254
 30
0.0000
  0
VERTEX
  8
TMC5160_BOB_V1_2_GTO
 10
-31.598362
 20
-3.047746
 30
0.0000
  0
VERTEX
  8
TMC5160_BOB_V1_2_GTO
 10
-31.090362
 20
-3.047746
 30
0.0000
  0
VERTEX
  8
TMC5160_BOB_V1_2_GTO
 10
-30.921198
 20
-2.878582
 30
0.0000
  0
VERTEX
  8
TMC5160_BOB_V1_2_GTO
 10
-30.921198
 20
-2.201418
 30
0.0000
  0
VERTEX
  8
TMC5160_BOB_V1_2_GTO
 10
-31.090362
 20
-2.032254
 30
0.0000
  0
VERTEX
  8
TMC5160_BOB_V1_2_GTO
 10
-31.598362
 20
-2.032254
 30
0.0000
  0
SEQEND
  0
POLYLINE
  8
TMC5160_BOB_V1_2_GTO
 66
1
 10
0.0000
 20
0.0000
 30
0.0000
 40
0.1778
 41
0.1778
  0
VERTEX
  8
TMC5160_BOB_V1_2_GTO
 10
-32.977836
 20
-4.741418
 30
0.0000
  0
VERTEX
  8
TMC5160_BOB_V1_2_GTO
 10
-33.147254
 20
-4.572254
 30
0.0000
  0
VERTEX
  8
TMC5160_BOB_V1_2_GTO
 10
-33.485836
 20
-4.572254
 30
0.0000
  0
VERTEX
  8
TMC5160_BOB_V1_2_GTO
 10
-33.6550
 20
-4.741418
 30
0.0000
  0
VERTEX
  8
TMC5160_BOB_V1_2_GTO
 10
-33.6550
 20
-5.418582
 30
0.0000
  0
VERTEX
  8
TMC5160_BOB_V1_2_GTO
 10
-33.485836
 20
-5.587746
 30
0.0000
  0
VERTEX
  8
TMC5160_BOB_V1_2_GTO
 10
-33.147254
 20
-5.587746
 30
0.0000
  0
VERTEX
  8
TMC5160_BOB_V1_2_GTO
 10
-32.977836
 20
-5.418582
 30
0.0000
  0
SEQEND
  0
POLYLINE
  8
TMC5160_BOB_V1_2_GTO
 66
1
 10
0.0000
 20
0.0000
 30
0.0000
 40
0.1778
 41
0.1778
  0
VERTEX
  8
TMC5160_BOB_V1_2_GTO
 10
-31.962344
 20
-4.741418
 30
0.0000
  0
VERTEX
  8
TMC5160_BOB_V1_2_GTO
 10
-32.131508
 20
-4.572254
 30
0.0000
  0
VERTEX
  8
TMC5160_BOB_V1_2_GTO
 10
-32.47009
 20
-4.572254
 30
0.0000
  0
VERTEX
  8
TMC5160_BOB_V1_2_GTO
 10
-32.639254
 20
-4.741418
 30
0.0000
  0
VERTEX
  8
TMC5160_BOB_V1_2_GTO
 10
-32.639254
 20
-4.910582
 30
0.0000
  0
VERTEX
  8
TMC5160_BOB_V1_2_GTO
 10
-32.47009
 20
-5.0800
 30
0.0000
  0
VERTEX
  8
TMC5160_BOB_V1_2_GTO
 10
-32.131508
 20
-5.0800
 30
0.0000
  0
VERTEX
  8
TMC5160_BOB_V1_2_GTO
 10
-31.962344
 20
-5.249164
 30
0.0000
  0
VERTEX
  8
TMC5160_BOB_V1_2_GTO
 10
-31.962344
 20
-5.418582
 30
0.0000
  0
VERTEX
  8
TMC5160_BOB_V1_2_GTO
 10
-32.131508
 20
-5.587746
 30
0.0000
  0
VERTEX
  8
TMC5160_BOB_V1_2_GTO
 10
-32.47009
 20
-5.587746
 30
0.0000
  0
VERTEX
  8
TMC5160_BOB_V1_2_GTO
 10
-32.639254
 20
-5.418582
 30
0.0000
  0
SEQEND
  0
POLYLINE
  8
TMC5160_BOB_V1_2_GTO
 66
1
 10
0.0000
 20
0.0000
 30
0.0000
 40
0.1778
 41
0.1778
  0
VERTEX
  8
TMC5160_BOB_V1_2_GTO
 10
-31.623762
 20
-5.587746
 30
0.0000
  0
VERTEX
  8
TMC5160_BOB_V1_2_GTO
 10
-31.623762
 20
-4.572254
 30
0.0000
  0
VERTEX
  8
TMC5160_BOB_V1_2_GTO
 10
-30.946598
 20
-5.587746
 30
0.0000
  0
VERTEX
  8
TMC5160_BOB_V1_2_GTO
 10
-30.946598
 20
-4.572254
 30
0.0000
  0
SEQEND
  0
POLYLINE
  8
TMC5160_BOB_V1_2_GTO
 66
1
 10
0.0000
 20
0.0000
 30
0.0000
 40
0.1778
 41
0.1778
  0
VERTEX
  8
TMC5160_BOB_V1_2_GTO
 10
-32.977836
 20
-9.821418
 30
0.0000
  0
VERTEX
  8
TMC5160_BOB_V1_2_GTO
 10
-33.147254
 20
-9.652254
 30
0.0000
  0
VERTEX
  8
TMC5160_BOB_V1_2_GTO
 10
-33.485836
 20
-9.652254
 30
0.0000
  0
VERTEX
  8
TMC5160_BOB_V1_2_GTO
 10
-33.6550
 20
-9.821418
 30
0.0000
  0
VERTEX
  8
TMC5160_BOB_V1_2_GTO
 10
-33.6550
 20
-9.990836
 30
0.0000
  0
VERTEX
  8
TMC5160_BOB_V1_2_GTO
 10
-33.485836
 20
-10.1600
 30
0.0000
  0
VERTEX
  8
TMC5160_BOB_V1_2_GTO
 10
-33.147254
 20
-10.1600
 30
0.0000
  0
VERTEX
  8
TMC5160_BOB_V1_2_GTO
 10
-32.977836
 20
-10.329164
 30
0.0000
  0
VERTEX
  8
TMC5160_BOB_V1_2_GTO
 10
-32.977836
 20
-10.498582
 30
0.0000
  0
VERTEX
  8
TMC5160_BOB_V1_2_GTO
 10
-33.147254
 20
-10.667746
 30
0.0000
  0
VERTEX
  8
TMC5160_BOB_V1_2_GTO
 10
-33.485836
 20
-10.667746
 30
0.0000
  0
VERTEX
  8
TMC5160_BOB_V1_2_GTO
 10
-33.6550
 20
-10.498582
 30
0.0000
  0
SEQEND
  0
POLYLINE
  8
TMC5160_BOB_V1_2_GTO
 66
1
 10
0.0000
 20
0.0000
 30
0.0000
 40
0.1778
 41
0.1778
  0
VERTEX
  8
TMC5160_BOB_V1_2_GTO
 10
-32.639254
 20
-9.652254
 30
0.0000
  0
VERTEX
  8
TMC5160_BOB_V1_2_GTO
 10
-32.639254
 20
-10.667746
 30
0.0000
  0
VERTEX
  8
TMC5160_BOB_V1_2_GTO
 10
-32.131508
 20
-10.667746
 30
0.0000
  0
VERTEX
  8
TMC5160_BOB_V1_2_GTO
 10
-31.962344
 20
-10.498582
 30
0.0000
  0
VERTEX
  8
TMC5160_BOB_V1_2_GTO
 10
-31.962344
 20
-9.821418
 30
0.0000
  0
VERTEX
  8
TMC5160_BOB_V1_2_GTO
 10
-32.131508
 20
-9.652254
 30
0.0000
  0
VERTEX
  8
TMC5160_BOB_V1_2_GTO
 10
-32.639254
 20
-9.652254
 30
0.0000
  0
SEQEND
  0
POLYLINE
  8
TMC5160_BOB_V1_2_GTO
 66
1
 10
0.0000
 20
0.0000
 30
0.0000
 40
0.1778
 41
0.1778
  0
VERTEX
  8
TMC5160_BOB_V1_2_GTO
 10
-31.623762
 20
-9.652254
 30
0.0000
  0
VERTEX
  8
TMC5160_BOB_V1_2_GTO
 10
-31.28518
 20
-9.652254
 30
0.0000
  0
VERTEX
  8
TMC5160_BOB_V1_2_GTO
 10
-31.454344
 20
-9.652254
 30
0.0000
  0
VERTEX
  8
TMC5160_BOB_V1_2_GTO
 10
-31.454344
 20
-10.667746
 30
0.0000
  0
VERTEX
  8
TMC5160_BOB_V1_2_GTO
 10
-31.623762
 20
-10.667746
 30
0.0000
  0
VERTEX
  8
TMC5160_BOB_V1_2_GTO
 10
-31.28518
 20
-10.667746
 30
0.0000
  0
SEQEND
  0
POLYLINE
  8
TMC5160_BOB_V1_2_GTO
 66
1
 10
0.0000
 20
0.0000
 30
0.0000
 40
0.1778
 41
0.1778
  0
VERTEX
  8
TMC5160_BOB_V1_2_GTO
 10
-33.062418
 20
-12.467336
 30
0.0000
  0
VERTEX
  8
TMC5160_BOB_V1_2_GTO
 10
-33.210754
 20
-12.3190
 30
0.0000
  0
VERTEX
  8
TMC5160_BOB_V1_2_GTO
 10
-33.506918
 20
-12.3190
 30
0.0000
  0
VERTEX
  8
TMC5160_BOB_V1_2_GTO
 10
-33.6550
 20
-12.467336
 30
0.0000
  0
VERTEX
  8
TMC5160_BOB_V1_2_GTO
 10
-33.6550
 20
-12.615418
 30
0.0000
  0
VERTEX
  8
TMC5160_BOB_V1_2_GTO
 10
-33.506918
 20
-12.7635
 30
0.0000
  0
VERTEX
  8
TMC5160_BOB_V1_2_GTO
 10
-33.210754
 20
-12.7635
 30
0.0000
  0
VERTEX
  8
TMC5160_BOB_V1_2_GTO
 10
-33.062418
 20
-12.911582
 30
0.0000
  0
VERTEX
  8
TMC5160_BOB_V1_2_GTO
 10
-33.062418
 20
-13.059664
 30
0.0000
  0
VERTEX
  8
TMC5160_BOB_V1_2_GTO
 10
-33.210754
 20
-13.207746
 30
0.0000
  0
VERTEX
  8
TMC5160_BOB_V1_2_GTO
 10
-33.506918
 20
-13.207746
 30
0.0000
  0
VERTEX
  8
TMC5160_BOB_V1_2_GTO
 10
-33.6550
 20
-13.059664
 30
0.0000
  0
SEQEND
  0
POLYLINE
  8
TMC5160_BOB_V1_2_GTO
 66
1
 10
0.0000
 20
0.0000
 30
0.0000
 40
0.1778
 41
0.1778
  0
VERTEX
  8
TMC5160_BOB_V1_2_GTO
 10
-32.766254
 20
-12.3190
 30
0.0000
  0
VERTEX
  8
TMC5160_BOB_V1_2_GTO
 10
-32.766254
 20
-13.207746
 30
0.0000
  0
VERTEX
  8
TMC5160_BOB_V1_2_GTO
 10
-32.322008
 20
-13.207746
 30
0.0000
  0
VERTEX
  8
TMC5160_BOB_V1_2_GTO
 10
-32.173926
 20
-13.059664
 30
0.0000
  0
VERTEX
  8
TMC5160_BOB_V1_2_GTO
 10
-32.173926
 20
-12.467336
 30
0.0000
  0
VERTEX
  8
TMC5160_BOB_V1_2_GTO
 10
-32.322008
 20
-12.3190
 30
0.0000
  0
VERTEX
  8
TMC5160_BOB_V1_2_GTO
 10
-32.766254
 20
-12.3190
 30
0.0000
  0
SEQEND
  0
POLYLINE
  8
TMC5160_BOB_V1_2_GTO
 66
1
 10
0.0000
 20
0.0000
 30
0.0000
 40
0.1778
 41
0.1778
  0
VERTEX
  8
TMC5160_BOB_V1_2_GTO
 10
-31.433262
 20
-12.3190
 30
0.0000
  0
VERTEX
  8
TMC5160_BOB_V1_2_GTO
 10
-31.729426
 20
-12.3190
 30
0.0000
  0
VERTEX
  8
TMC5160_BOB_V1_2_GTO
 10
-31.877508
 20
-12.467336
 30
0.0000
  0
VERTEX
  8
TMC5160_BOB_V1_2_GTO
 10
-31.877508
 20
-13.059664
 30
0.0000
  0
VERTEX
  8
TMC5160_BOB_V1_2_GTO
 10
-31.729426
 20
-13.207746
 30
0.0000
  0
VERTEX
  8
TMC5160_BOB_V1_2_GTO
 10
-31.433262
 20
-13.207746
 30
0.0000
  0
VERTEX
  8
TMC5160_BOB_V1_2_GTO
 10
-31.28518
 20
-13.059664
 30
0.0000
  0
VERTEX
  8
TMC5160_BOB_V1_2_GTO
 10
-31.28518
 20
-12.467336
 30
0.0000
  0
VERTEX
  8
TMC5160_BOB_V1_2_GTO
 10
-31.433262
 20
-12.3190
 30
0.0000
  0
SEQEND
  0
POLYLINE
  8
TMC5160_BOB_V1_2_GTO
 66
1
 10
0.0000
 20
0.0000
 30
0.0000
 40
0.1778
 41
0.1778
  0
VERTEX
  8
TMC5160_BOB_V1_2_GTO
 10
-32.977836
 20
-7.281418
 30
0.0000
  0
VERTEX
  8
TMC5160_BOB_V1_2_GTO
 10
-33.147254
 20
-7.112254
 30
0.0000
  0
VERTEX
  8
TMC5160_BOB_V1_2_GTO
 10
-33.485836
 20
-7.112254
 30
0.0000
  0
VERTEX
  8
TMC5160_BOB_V1_2_GTO
 10
-33.6550
 20
-7.281418
 30
0.0000
  0
VERTEX
  8
TMC5160_BOB_V1_2_GTO
 10
-33.6550
 20
-7.450836
 30
0.0000
  0
VERTEX
  8
TMC5160_BOB_V1_2_GTO
 10
-33.485836
 20
-7.6200
 30
0.0000
  0
VERTEX
  8
TMC5160_BOB_V1_2_GTO
 10
-33.147254
 20
-7.6200
 30
0.0000
  0
VERTEX
  8
TMC5160_BOB_V1_2_GTO
 10
-32.977836
 20
-7.789164
 30
0.0000
  0
VERTEX
  8
TMC5160_BOB_V1_2_GTO
 10
-32.977836
 20
-7.958582
 30
0.0000
  0
VERTEX
  8
TMC5160_BOB_V1_2_GTO
 10
-33.147254
 20
-8.127746
 30
0.0000
  0
VERTEX
  8
TMC5160_BOB_V1_2_GTO
 10
-33.485836
 20
-8.127746
 30
0.0000
  0
VERTEX
  8
TMC5160_BOB_V1_2_GTO
 10
-33.6550
 20
-7.958582
 30
0.0000
  0
SEQEND
  0
POLYLINE
  8
TMC5160_BOB_V1_2_GTO
 66
1
 10
0.0000
 20
0.0000
 30
0.0000
 40
0.1778
 41
0.1778
  0
VERTEX
  8
TMC5160_BOB_V1_2_GTO
 10
-31.962344
 20
-7.281418
 30
0.0000
  0
VERTEX
  8
TMC5160_BOB_V1_2_GTO
 10
-32.131508
 20
-7.112254
 30
0.0000
  0
VERTEX
  8
TMC5160_BOB_V1_2_GTO
 10
-32.47009
 20
-7.112254
 30
0.0000
  0
VERTEX
  8
TMC5160_BOB_V1_2_GTO
 10
-32.639254
 20
-7.281418
 30
0.0000
  0
VERTEX
  8
TMC5160_BOB_V1_2_GTO
 10
-32.639254
 20
-7.958582
 30
0.0000
  0
VERTEX
  8
TMC5160_BOB_V1_2_GTO
 10
-32.47009
 20
-8.127746
 30
0.0000
  0
VERTEX
  8
TMC5160_BOB_V1_2_GTO
 10
-32.131508
 20
-8.127746
 30
0.0000
  0
VERTEX
  8
TMC5160_BOB_V1_2_GTO
 10
-31.962344
 20
-7.958582
 30
0.0000
  0
SEQEND
  0
POLYLINE
  8
TMC5160_BOB_V1_2_GTO
 66
1
 10
0.0000
 20
0.0000
 30
0.0000
 40
0.1778
 41
0.1778
  0
VERTEX
  8
TMC5160_BOB_V1_2_GTO
 10
-31.623762
 20
-7.112254
 30
0.0000
  0
VERTEX
  8
TMC5160_BOB_V1_2_GTO
 10
-31.623762
 20
-8.127746
 30
0.0000
  0
VERTEX
  8
TMC5160_BOB_V1_2_GTO
 10
-31.623762
 20
-7.789164
 30
0.0000
  0
VERTEX
  8
TMC5160_BOB_V1_2_GTO
 10
-30.946598
 20
-7.112254
 30
0.0000
  0
VERTEX
  8
TMC5160_BOB_V1_2_GTO
 10
-31.454344
 20
-7.6200
 30
0.0000
  0
VERTEX
  8
TMC5160_BOB_V1_2_GTO
 10
-30.946598
 20
-8.127746
 30
0.0000
  0
SEQEND
  0
POLYLINE
  8
TMC5160_BOB_V1_2_GTO
 66
1
 10
0.0000
 20
0.0000
 30
0.0000
 40
0.1778
 41
0.1778
  0
VERTEX
  8
TMC5160_BOB_V1_2_GTO
 10
-33.7058
 20
-20.879054
 30
0.0000
  0
VERTEX
  8
TMC5160_BOB_V1_2_GTO
 10
-33.7058
 20
-21.7170
 30
0.0000
  0
VERTEX
  8
TMC5160_BOB_V1_2_GTO
 10
-33.286954
 20
-21.7170
 30
0.0000
  0
VERTEX
  8
TMC5160_BOB_V1_2_GTO
 10
-33.147254
 20
-21.5773
 30
0.0000
  0
VERTEX
  8
TMC5160_BOB_V1_2_GTO
 10
-33.147254
 20
-21.018754
 30
0.0000
  0
VERTEX
  8
TMC5160_BOB_V1_2_GTO
 10
-33.286954
 20
-20.879054
 30
0.0000
  0
VERTEX
  8
TMC5160_BOB_V1_2_GTO
 10
-33.7058
 20
-20.879054
 30
0.0000
  0
SEQEND
  0
POLYLINE
  8
TMC5160_BOB_V1_2_GTO
 66
1
 10
0.0000
 20
0.0000
 30
0.0000
 40
0.1778
 41
0.1778
  0
VERTEX
  8
TMC5160_BOB_V1_2_GTO
 10
-32.867854
 20
-21.7170
 30
0.0000
  0
VERTEX
  8
TMC5160_BOB_V1_2_GTO
 10
-32.867854
 20
-20.879054
 30
0.0000
  0
VERTEX
  8
TMC5160_BOB_V1_2_GTO
 10
-32.449008
 20
-20.879054
 30
0.0000
  0
VERTEX
  8
TMC5160_BOB_V1_2_GTO
 10
-32.309308
 20
-21.018754
 30
0.0000
  0
VERTEX
  8
TMC5160_BOB_V1_2_GTO
 10
-32.309308
 20
-21.298154
 30
0.0000
  0
VERTEX
  8
TMC5160_BOB_V1_2_GTO
 10
-32.449008
 20
-21.4376
 30
0.0000
  0
VERTEX
  8
TMC5160_BOB_V1_2_GTO
 10
-32.867854
 20
-21.4376
 30
0.0000
  0
SEQEND
  0
POLYLINE
  8
TMC5160_BOB_V1_2_GTO
 66
1
 10
0.0000
 20
0.0000
 30
0.0000
 40
0.1778
 41
0.1778
  0
VERTEX
  8
TMC5160_BOB_V1_2_GTO
 10
-32.588454
 20
-21.4376
 30
0.0000
  0
VERTEX
  8
TMC5160_BOB_V1_2_GTO
 10
-32.309308
 20
-21.7170
 30
0.0000
  0
SEQEND
  0
POLYLINE
  8
TMC5160_BOB_V1_2_GTO
 66
1
 10
0.0000
 20
0.0000
 30
0.0000
 40
0.1778
 41
0.1778
  0
VERTEX
  8
TMC5160_BOB_V1_2_GTO
 10
-32.029908
 20
-20.879054
 30
0.0000
  0
VERTEX
  8
TMC5160_BOB_V1_2_GTO
 10
-32.029908
 20
-21.4376
 30
0.0000
  0
VERTEX
  8
TMC5160_BOB_V1_2_GTO
 10
-31.750762
 20
-21.7170
 30
0.0000
  0
VERTEX
  8
TMC5160_BOB_V1_2_GTO
 10
-31.471362
 20
-21.4376
 30
0.0000
  0
VERTEX
  8
TMC5160_BOB_V1_2_GTO
 10
-31.471362
 20
-20.879054
 30
0.0000
  0
SEQEND
  0
POLYLINE
  8
TMC5160_BOB_V1_2_GTO
 66
1
 10
0.0000
 20
0.0000
 30
0.0000
 40
0.1778
 41
0.1778
  0
VERTEX
  8
TMC5160_BOB_V1_2_GTO
 10
-31.191962
 20
-21.8567
 30
0.0000
  0
VERTEX
  8
TMC5160_BOB_V1_2_GTO
 10
-30.633416
 20
-21.8567
 30
0.0000
  0
SEQEND
  0
POLYLINE
  8
TMC5160_BOB_V1_2_GTO
 66
1
 10
0.0000
 20
0.0000
 30
0.0000
 40
0.1778
 41
0.1778
  0
VERTEX
  8
TMC5160_BOB_V1_2_GTO
 10
-29.79547
 20
-20.879054
 30
0.0000
  0
VERTEX
  8
TMC5160_BOB_V1_2_GTO
 10
-30.354016
 20
-20.879054
 30
0.0000
  0
VERTEX
  8
TMC5160_BOB_V1_2_GTO
 10
-30.354016
 20
-21.7170
 30
0.0000
  0
VERTEX
  8
TMC5160_BOB_V1_2_GTO
 10
-29.79547
 20
-21.7170
 30
0.0000
  0
SEQEND
  0
POLYLINE
  8
TMC5160_BOB_V1_2_GTO
 66
1
 10
0.0000
 20
0.0000
 30
0.0000
 40
0.1778
 41
0.1778
  0
VERTEX
  8
TMC5160_BOB_V1_2_GTO
 10
-30.354016
 20
-21.298154
 30
0.0000
  0
VERTEX
  8
TMC5160_BOB_V1_2_GTO
 10
-30.07487
 20
-21.298154
 30
0.0000
  0
SEQEND
  0
POLYLINE
  8
TMC5160_BOB_V1_2_GTO
 66
1
 10
0.0000
 20
0.0000
 30
0.0000
 40
0.1778
 41
0.1778
  0
VERTEX
  8
TMC5160_BOB_V1_2_GTO
 10
-29.51607
 20
-21.7170
 30
0.0000
  0
VERTEX
  8
TMC5160_BOB_V1_2_GTO
 10
-29.51607
 20
-20.879054
 30
0.0000
  0
VERTEX
  8
TMC5160_BOB_V1_2_GTO
 10
-28.957524
 20
-21.7170
 30
0.0000
  0
VERTEX
  8
TMC5160_BOB_V1_2_GTO
 10
-28.957524
 20
-20.879054
 30
0.0000
  0
SEQEND
  0
POLYLINE
  8
TMC5160_BOB_V1_2_GTO
 66
1
 10
0.0000
 20
0.0000
 30
0.0000
 40
0.1778
 41
0.1778
  0
VERTEX
  8
TMC5160_BOB_V1_2_GTO
 10
-28.678124
 20
-21.7170
 30
0.0000
  0
VERTEX
  8
TMC5160_BOB_V1_2_GTO
 10
-28.678124
 20
-20.879054
 30
0.0000
  0
VERTEX
  8
TMC5160_BOB_V1_2_GTO
 10
-28.119578
 20
-21.7170
 30
0.0000
  0
VERTEX
  8
TMC5160_BOB_V1_2_GTO
 10
-28.119578
 20
-20.879054
 30
0.0000
  0
SEQEND
  0
POLYLINE
  8
TMC5160_BOB_V1_2_GTO
 66
1
 10
0.0000
 20
0.0000
 30
0.0000
 40
0.1778
 41
0.1778
  0
VERTEX
  8
TMC5160_BOB_V1_2_GTO
 10
-33.6550
 20
-25.907746
 30
0.0000
  0
VERTEX
  8
TMC5160_BOB_V1_2_GTO
 10
-33.6550
 20
-24.892254
 30
0.0000
  0
VERTEX
  8
TMC5160_BOB_V1_2_GTO
 10
-33.147254
 20
-24.892254
 30
0.0000
  0
VERTEX
  8
TMC5160_BOB_V1_2_GTO
 10
-32.977836
 20
-25.061418
 30
0.0000
  0
VERTEX
  8
TMC5160_BOB_V1_2_GTO
 10
-32.977836
 20
-25.4000
 30
0.0000
  0
VERTEX
  8
TMC5160_BOB_V1_2_GTO
 10
-33.147254
 20
-25.569164
 30
0.0000
  0
VERTEX
  8
TMC5160_BOB_V1_2_GTO
 10
-33.6550
 20
-25.569164
 30
0.0000
  0
SEQEND
  0
POLYLINE
  8
TMC5160_BOB_V1_2_GTO
 66
1
 10
0.0000
 20
0.0000
 30
0.0000
 40
0.1778
 41
0.1778
  0
VERTEX
  8
TMC5160_BOB_V1_2_GTO
 10
-33.316418
 20
-25.569164
 30
0.0000
  0
VERTEX
  8
TMC5160_BOB_V1_2_GTO
 10
-32.977836
 20
-25.907746
 30
0.0000
  0
SEQEND
  0
POLYLINE
  8
TMC5160_BOB_V1_2_GTO
 66
1
 10
0.0000
 20
0.0000
 30
0.0000
 40
0.1778
 41
0.1778
  0
VERTEX
  8
TMC5160_BOB_V1_2_GTO
 10
-31.962344
 20
-24.892254
 30
0.0000
  0
VERTEX
  8
TMC5160_BOB_V1_2_GTO
 10
-32.639254
 20
-24.892254
 30
0.0000
  0
VERTEX
  8
TMC5160_BOB_V1_2_GTO
 10
-32.639254
 20
-25.907746
 30
0.0000
  0
VERTEX
  8
TMC5160_BOB_V1_2_GTO
 10
-31.962344
 20
-25.907746
 30
0.0000
  0
SEQEND
  0
POLYLINE
  8
TMC5160_BOB_V1_2_GTO
 66
1
 10
0.0000
 20
0.0000
 30
0.0000
 40
0.1778
 41
0.1778
  0
VERTEX
  8
TMC5160_BOB_V1_2_GTO
 10
-32.639254
 20
-25.4000
 30
0.0000
  0
VERTEX
  8
TMC5160_BOB_V1_2_GTO
 10
-32.300672
 20
-25.4000
 30
0.0000
  0
SEQEND
  0
POLYLINE
  8
TMC5160_BOB_V1_2_GTO
 66
1
 10
0.0000
 20
0.0000
 30
0.0000
 40
0.1778
 41
0.1778
  0
VERTEX
  8
TMC5160_BOB_V1_2_GTO
 10
-30.946598
 20
-24.892254
 30
0.0000
  0
VERTEX
  8
TMC5160_BOB_V1_2_GTO
 10
-31.623762
 20
-24.892254
 30
0.0000
  0
VERTEX
  8
TMC5160_BOB_V1_2_GTO
 10
-31.623762
 20
-25.4000
 30
0.0000
  0
VERTEX
  8
TMC5160_BOB_V1_2_GTO
 10
-31.28518
 20
-25.4000
 30
0.0000
  0
VERTEX
  8
TMC5160_BOB_V1_2_GTO
 10
-31.623762
 20
-25.4000
 30
0.0000
  0
VERTEX
  8
TMC5160_BOB_V1_2_GTO
 10
-31.623762
 20
-25.907746
 30
0.0000
  0
SEQEND
  0
POLYLINE
  8
TMC5160_BOB_V1_2_GTO
 66
1
 10
0.0000
 20
0.0000
 30
0.0000
 40
0.1778
 41
0.1778
  0
VERTEX
  8
TMC5160_BOB_V1_2_GTO
 10
-30.608016
 20
-25.907746
 30
0.0000
  0
VERTEX
  8
TMC5160_BOB_V1_2_GTO
 10
-30.608016
 20
-24.892254
 30
0.0000
  0
VERTEX
  8
TMC5160_BOB_V1_2_GTO
 10
-30.10027
 20
-24.892254
 30
0.0000
  0
VERTEX
  8
TMC5160_BOB_V1_2_GTO
 10
-29.930852
 20
-25.061418
 30
0.0000
  0
VERTEX
  8
TMC5160_BOB_V1_2_GTO
 10
-29.930852
 20
-25.4000
 30
0.0000
  0
VERTEX
  8
TMC5160_BOB_V1_2_GTO
 10
-30.10027
 20
-25.569164
 30
0.0000
  0
VERTEX
  8
TMC5160_BOB_V1_2_GTO
 10
-30.608016
 20
-25.569164
 30
0.0000
  0
SEQEND
  0
POLYLINE
  8
TMC5160_BOB_V1_2_GTO
 66
1
 10
0.0000
 20
0.0000
 30
0.0000
 40
0.1778
 41
0.1778
  0
VERTEX
  8
TMC5160_BOB_V1_2_GTO
 10
-30.269434
 20
-25.569164
 30
0.0000
  0
VERTEX
  8
TMC5160_BOB_V1_2_GTO
 10
-29.930852
 20
-25.907746
 30
0.0000
  0
SEQEND
  0
POLYLINE
  8
TMC5160_BOB_V1_2_GTO
 66
1
 10
0.0000
 20
0.0000
 30
0.0000
 40
0.1778
 41
0.1778
  0
VERTEX
  8
TMC5160_BOB_V1_2_GTO
 10
-33.6550
 20
-23.367746
 30
0.0000
  0
VERTEX
  8
TMC5160_BOB_V1_2_GTO
 10
-33.6550
 20
-22.352254
 30
0.0000
  0
VERTEX
  8
TMC5160_BOB_V1_2_GTO
 10
-33.147254
 20
-22.352254
 30
0.0000
  0
VERTEX
  8
TMC5160_BOB_V1_2_GTO
 10
-32.977836
 20
-22.521418
 30
0.0000
  0
VERTEX
  8
TMC5160_BOB_V1_2_GTO
 10
-32.977836
 20
-22.8600
 30
0.0000
  0
VERTEX
  8
TMC5160_BOB_V1_2_GTO
 10
-33.147254
 20
-23.029164
 30
0.0000
  0
VERTEX
  8
TMC5160_BOB_V1_2_GTO
 10
-33.6550
 20
-23.029164
 30
0.0000
  0
SEQEND
  0
POLYLINE
  8
TMC5160_BOB_V1_2_GTO
 66
1
 10
0.0000
 20
0.0000
 30
0.0000
 40
0.1778
 41
0.1778
  0
VERTEX
  8
TMC5160_BOB_V1_2_GTO
 10
-33.316418
 20
-23.029164
 30
0.0000
  0
VERTEX
  8
TMC5160_BOB_V1_2_GTO
 10
-32.977836
 20
-23.367746
 30
0.0000
  0
SEQEND
  0
POLYLINE
  8
TMC5160_BOB_V1_2_GTO
 66
1
 10
0.0000
 20
0.0000
 30
0.0000
 40
0.1778
 41
0.1778
  0
VERTEX
  8
TMC5160_BOB_V1_2_GTO
 10
-31.962344
 20
-22.352254
 30
0.0000
  0
VERTEX
  8
TMC5160_BOB_V1_2_GTO
 10
-32.639254
 20
-22.352254
 30
0.0000
  0
VERTEX
  8
TMC5160_BOB_V1_2_GTO
 10
-32.639254
 20
-23.367746
 30
0.0000
  0
VERTEX
  8
TMC5160_BOB_V1_2_GTO
 10
-31.962344
 20
-23.367746
 30
0.0000
  0
SEQEND
  0
POLYLINE
  8
TMC5160_BOB_V1_2_GTO
 66
1
 10
0.0000
 20
0.0000
 30
0.0000
 40
0.1778
 41
0.1778
  0
VERTEX
  8
TMC5160_BOB_V1_2_GTO
 10
-32.639254
 20
-22.8600
 30
0.0000
  0
VERTEX
  8
TMC5160_BOB_V1_2_GTO
 10
-32.300672
 20
-22.8600
 30
0.0000
  0
SEQEND
  0
POLYLINE
  8
TMC5160_BOB_V1_2_GTO
 66
1
 10
0.0000
 20
0.0000
 30
0.0000
 40
0.1778
 41
0.1778
  0
VERTEX
  8
TMC5160_BOB_V1_2_GTO
 10
-30.946598
 20
-22.352254
 30
0.0000
  0
VERTEX
  8
TMC5160_BOB_V1_2_GTO
 10
-31.623762
 20
-22.352254
 30
0.0000
  0
VERTEX
  8
TMC5160_BOB_V1_2_GTO
 10
-31.623762
 20
-22.8600
 30
0.0000
  0
VERTEX
  8
TMC5160_BOB_V1_2_GTO
 10
-31.28518
 20
-22.8600
 30
0.0000
  0
VERTEX
  8
TMC5160_BOB_V1_2_GTO
 10
-31.623762
 20
-22.8600
 30
0.0000
  0
VERTEX
  8
TMC5160_BOB_V1_2_GTO
 10
-31.623762
 20
-23.367746
 30
0.0000
  0
SEQEND
  0
POLYLINE
  8
TMC5160_BOB_V1_2_GTO
 66
1
 10
0.0000
 20
0.0000
 30
0.0000
 40
0.1778
 41
0.1778
  0
VERTEX
  8
TMC5160_BOB_V1_2_GTO
 10
-30.608016
 20
-22.352254
 30
0.0000
  0
VERTEX
  8
TMC5160_BOB_V1_2_GTO
 10
-30.608016
 20
-23.367746
 30
0.0000
  0
VERTEX
  8
TMC5160_BOB_V1_2_GTO
 10
-29.930852
 20
-23.367746
 30
0.0000
  0
SEQEND
  0
POLYLINE
  8
TMC5160_BOB_V1_2_GTO
 66
1
 10
0.0000
 20
0.0000
 30
0.0000
 40
0.1778
 41
0.1778
  0
VERTEX
  8
TMC5160_BOB_V1_2_GTO
 10
-32.977836
 20
-16.552418
 30
0.0000
  0
VERTEX
  8
TMC5160_BOB_V1_2_GTO
 10
-33.147254
 20
-16.383254
 30
0.0000
  0
VERTEX
  8
TMC5160_BOB_V1_2_GTO
 10
-33.485836
 20
-16.383254
 30
0.0000
  0
VERTEX
  8
TMC5160_BOB_V1_2_GTO
 10
-33.6550
 20
-16.552418
 30
0.0000
  0
VERTEX
  8
TMC5160_BOB_V1_2_GTO
 10
-33.6550
 20
-17.229582
 30
0.0000
  0
VERTEX
  8
TMC5160_BOB_V1_2_GTO
 10
-33.485836
 20
-17.398746
 30
0.0000
  0
VERTEX
  8
TMC5160_BOB_V1_2_GTO
 10
-33.147254
 20
-17.398746
 30
0.0000
  0
VERTEX
  8
TMC5160_BOB_V1_2_GTO
 10
-32.977836
 20
-17.229582
 30
0.0000
  0
SEQEND
  0
POLYLINE
  8
TMC5160_BOB_V1_2_GTO
 66
1
 10
0.0000
 20
0.0000
 30
0.0000
 40
0.1778
 41
0.1778
  0
VERTEX
  8
TMC5160_BOB_V1_2_GTO
 10
-32.639254
 20
-16.383254
 30
0.0000
  0
VERTEX
  8
TMC5160_BOB_V1_2_GTO
 10
-32.639254
 20
-17.398746
 30
0.0000
  0
VERTEX
  8
TMC5160_BOB_V1_2_GTO
 10
-31.962344
 20
-17.398746
 30
0.0000
  0
SEQEND
  0
POLYLINE
  8
TMC5160_BOB_V1_2_GTO
 66
1
 10
0.0000
 20
0.0000
 30
0.0000
 40
0.1778
 41
0.1778
  0
VERTEX
  8
TMC5160_BOB_V1_2_GTO
 10
-31.623762
 20
-16.383254
 30
0.0000
  0
VERTEX
  8
TMC5160_BOB_V1_2_GTO
 10
-31.623762
 20
-17.398746
 30
0.0000
  0
VERTEX
  8
TMC5160_BOB_V1_2_GTO
 10
-31.623762
 20
-17.060164
 30
0.0000
  0
VERTEX
  8
TMC5160_BOB_V1_2_GTO
 10
-30.946598
 20
-16.383254
 30
0.0000
  0
VERTEX
  8
TMC5160_BOB_V1_2_GTO
 10
-31.454344
 20
-16.8910
 30
0.0000
  0
VERTEX
  8
TMC5160_BOB_V1_2_GTO
 10
-30.946598
 20
-17.398746
 30
0.0000
  0
SEQEND
  0
POLYLINE
  8
TMC5160_BOB_V1_2_GTO
 66
1
 10
0.0000
 20
0.0000
 30
0.0000
 40
0.1778
 41
0.1778
  0
VERTEX
  8
TMC5160_BOB_V1_2_GTO
 10
-30.608016
 20
-17.398746
 30
0.0000
  0
VERTEX
  8
TMC5160_BOB_V1_2_GTO
 10
-30.269434
 20
-17.398746
 30
0.0000
  0
VERTEX
  8
TMC5160_BOB_V1_2_GTO
 10
-30.438598
 20
-17.398746
 30
0.0000
  0
VERTEX
  8
TMC5160_BOB_V1_2_GTO
 10
-30.438598
 20
-16.383254
 30
0.0000
  0
VERTEX
  8
TMC5160_BOB_V1_2_GTO
 10
-30.608016
 20
-16.552418
 30
0.0000
  0
SEQEND
  0
POLYLINE
  8
TMC5160_BOB_V1_2_GTO
 66
1
 10
0.0000
 20
0.0000
 30
0.0000
 40
0.1778
 41
0.1778
  0
VERTEX
  8
TMC5160_BOB_V1_2_GTO
 10
-29.084524
 20
-16.383254
 30
0.0000
  0
VERTEX
  8
TMC5160_BOB_V1_2_GTO
 10
-29.423106
 20
-16.552418
 30
0.0000
  0
VERTEX
  8
TMC5160_BOB_V1_2_GTO
 10
-29.761688
 20
-16.8910
 30
0.0000
  0
VERTEX
  8
TMC5160_BOB_V1_2_GTO
 10
-29.761688
 20
-17.229582
 30
0.0000
  0
VERTEX
  8
TMC5160_BOB_V1_2_GTO
 10
-29.59227
 20
-17.398746
 30
0.0000
  0
VERTEX
  8
TMC5160_BOB_V1_2_GTO
 10
-29.253688
 20
-17.398746
 30
0.0000
  0
VERTEX
  8
TMC5160_BOB_V1_2_GTO
 10
-29.084524
 20
-17.229582
 30
0.0000
  0
VERTEX
  8
TMC5160_BOB_V1_2_GTO
 10
-29.084524
 20
-17.060164
 30
0.0000
  0
VERTEX
  8
TMC5160_BOB_V1_2_GTO
 10
-29.253688
 20
-16.8910
 30
0.0000
  0
VERTEX
  8
TMC5160_BOB_V1_2_GTO
 10
-29.761688
 20
-16.8910
 30
0.0000
  0
SEQEND
  0
POLYLINE
  8
TMC5160_BOB_V1_2_GTO
 66
1
 10
0.0000
 20
0.0000
 30
0.0000
 40
0.1778
 41
0.1778
  0
VERTEX
  8
TMC5160_BOB_V1_2_GTO
 10
-4.004818
 20
-13.207746
 30
0.0000
  0
VERTEX
  8
TMC5160_BOB_V1_2_GTO
 10
-4.004818
 20
-12.530836
 30
0.0000
  0
VERTEX
  8
TMC5160_BOB_V1_2_GTO
 10
-3.666236
 20
-12.192254
 30
0.0000
  0
VERTEX
  8
TMC5160_BOB_V1_2_GTO
 10
-3.327654
 20
-12.530836
 30
0.0000
  0
VERTEX
  8
TMC5160_BOB_V1_2_GTO
 10
-3.327654
 20
-13.207746
 30
0.0000
  0
VERTEX
  8
TMC5160_BOB_V1_2_GTO
 10
-3.327654
 20
-12.7000
 30
0.0000
  0
VERTEX
  8
TMC5160_BOB_V1_2_GTO
 10
-4.004818
 20
-12.7000
 30
0.0000
  0
SEQEND
  0
POLYLINE
  8
TMC5160_BOB_V1_2_GTO
 66
1
 10
0.0000
 20
0.0000
 30
0.0000
 40
0.1778
 41
0.1778
  0
VERTEX
  8
TMC5160_BOB_V1_2_GTO
 10
-2.989072
 20
-13.207746
 30
0.0000
  0
VERTEX
  8
TMC5160_BOB_V1_2_GTO
 10
-2.65049
 20
-13.207746
 30
0.0000
  0
VERTEX
  8
TMC5160_BOB_V1_2_GTO
 10
-2.819908
 20
-13.207746
 30
0.0000
  0
VERTEX
  8
TMC5160_BOB_V1_2_GTO
 10
-2.819908
 20
-12.192254
 30
0.0000
  0
VERTEX
  8
TMC5160_BOB_V1_2_GTO
 10
-2.989072
 20
-12.361418
 30
0.0000
  0
SEQEND
  0
POLYLINE
  8
TMC5160_BOB_V1_2_GTO
 66
1
 10
0.0000
 20
0.0000
 30
0.0000
 40
0.1778
 41
0.1778
  0
VERTEX
  8
TMC5160_BOB_V1_2_GTO
 10
-4.3434
 20
-10.667746
 30
0.0000
  0
VERTEX
  8
TMC5160_BOB_V1_2_GTO
 10
-4.3434
 20
-9.990836
 30
0.0000
  0
VERTEX
  8
TMC5160_BOB_V1_2_GTO
 10
-4.004818
 20
-9.652254
 30
0.0000
  0
VERTEX
  8
TMC5160_BOB_V1_2_GTO
 10
-3.666236
 20
-9.990836
 30
0.0000
  0
VERTEX
  8
TMC5160_BOB_V1_2_GTO
 10
-3.666236
 20
-10.667746
 30
0.0000
  0
VERTEX
  8
TMC5160_BOB_V1_2_GTO
 10
-3.666236
 20
-10.1600
 30
0.0000
  0
VERTEX
  8
TMC5160_BOB_V1_2_GTO
 10
-4.3434
 20
-10.1600
 30
0.0000
  0
SEQEND
  0
POLYLINE
  8
TMC5160_BOB_V1_2_GTO
 66
1
 10
0.0000
 20
0.0000
 30
0.0000
 40
0.1778
 41
0.1778
  0
VERTEX
  8
TMC5160_BOB_V1_2_GTO
 10
-2.65049
 20
-10.667746
 30
0.0000
  0
VERTEX
  8
TMC5160_BOB_V1_2_GTO
 10
-3.327654
 20
-10.667746
 30
0.0000
  0
VERTEX
  8
TMC5160_BOB_V1_2_GTO
 10
-2.65049
 20
-9.990836
 30
0.0000
  0
VERTEX
  8
TMC5160_BOB_V1_2_GTO
 10
-2.65049
 20
-9.821418
 30
0.0000
  0
VERTEX
  8
TMC5160_BOB_V1_2_GTO
 10
-2.819908
 20
-9.652254
 30
0.0000
  0
VERTEX
  8
TMC5160_BOB_V1_2_GTO
 10
-3.15849
 20
-9.652254
 30
0.0000
  0
VERTEX
  8
TMC5160_BOB_V1_2_GTO
 10
-3.327654
 20
-9.821418
 30
0.0000
  0
SEQEND
  0
POLYLINE
  8
TMC5160_BOB_V1_2_GTO
 66
1
 10
0.0000
 20
0.0000
 30
0.0000
 40
0.1778
 41
0.1778
  0
VERTEX
  8
TMC5160_BOB_V1_2_GTO
 10
-4.681982
 20
-14.901418
 30
0.0000
  0
VERTEX
  8
TMC5160_BOB_V1_2_GTO
 10
-4.851146
 20
-14.732254
 30
0.0000
  0
VERTEX
  8
TMC5160_BOB_V1_2_GTO
 10
-5.189728
 20
-14.732254
 30
0.0000
  0
VERTEX
  8
TMC5160_BOB_V1_2_GTO
 10
-5.359146
 20
-14.901418
 30
0.0000
  0
VERTEX
  8
TMC5160_BOB_V1_2_GTO
 10
-5.359146
 20
-15.578582
 30
0.0000
  0
VERTEX
  8
TMC5160_BOB_V1_2_GTO
 10
-5.189728
 20
-15.747746
 30
0.0000
  0
VERTEX
  8
TMC5160_BOB_V1_2_GTO
 10
-4.851146
 20
-15.747746
 30
0.0000
  0
VERTEX
  8
TMC5160_BOB_V1_2_GTO
 10
-4.681982
 20
-15.578582
 30
0.0000
  0
VERTEX
  8
TMC5160_BOB_V1_2_GTO
 10
-4.681982
 20
-15.2400
 30
0.0000
  0
VERTEX
  8
TMC5160_BOB_V1_2_GTO
 10
-5.020564
 20
-15.2400
 30
0.0000
  0
SEQEND
  0
POLYLINE
  8
TMC5160_BOB_V1_2_GTO
 66
1
 10
0.0000
 20
0.0000
 30
0.0000
 40
0.1778
 41
0.1778
  0
VERTEX
  8
TMC5160_BOB_V1_2_GTO
 10
-4.3434
 20
-15.747746
 30
0.0000
  0
VERTEX
  8
TMC5160_BOB_V1_2_GTO
 10
-4.3434
 20
-14.732254
 30
0.0000
  0
VERTEX
  8
TMC5160_BOB_V1_2_GTO
 10
-3.666236
 20
-15.747746
 30
0.0000
  0
VERTEX
  8
TMC5160_BOB_V1_2_GTO
 10
-3.666236
 20
-14.732254
 30
0.0000
  0
SEQEND
  0
POLYLINE
  8
TMC5160_BOB_V1_2_GTO
 66
1
 10
0.0000
 20
0.0000
 30
0.0000
 40
0.1778
 41
0.1778
  0
VERTEX
  8
TMC5160_BOB_V1_2_GTO
 10
-3.327654
 20
-14.732254
 30
0.0000
  0
VERTEX
  8
TMC5160_BOB_V1_2_GTO
 10
-3.327654
 20
-15.747746
 30
0.0000
  0
VERTEX
  8
TMC5160_BOB_V1_2_GTO
 10
-2.819908
 20
-15.747746
 30
0.0000
  0
VERTEX
  8
TMC5160_BOB_V1_2_GTO
 10
-2.65049
 20
-15.578582
 30
0.0000
  0
VERTEX
  8
TMC5160_BOB_V1_2_GTO
 10
-2.65049
 20
-14.901418
 30
0.0000
  0
VERTEX
  8
TMC5160_BOB_V1_2_GTO
 10
-2.819908
 20
-14.732254
 30
0.0000
  0
VERTEX
  8
TMC5160_BOB_V1_2_GTO
 10
-3.327654
 20
-14.732254
 30
0.0000
  0
SEQEND
  0
POLYLINE
  8
TMC5160_BOB_V1_2_GTO
 66
1
 10
0.0000
 20
0.0000
 30
0.0000
 40
0.1778
 41
0.1778
  0
VERTEX
  8
TMC5160_BOB_V1_2_GTO
 10
-4.3434
 20
-4.572254
 30
0.0000
  0
VERTEX
  8
TMC5160_BOB_V1_2_GTO
 10
-4.3434
 20
-5.587746
 30
0.0000
  0
VERTEX
  8
TMC5160_BOB_V1_2_GTO
 10
-3.835654
 20
-5.587746
 30
0.0000
  0
VERTEX
  8
TMC5160_BOB_V1_2_GTO
 10
-3.666236
 20
-5.418582
 30
0.0000
  0
VERTEX
  8
TMC5160_BOB_V1_2_GTO
 10
-3.666236
 20
-5.249164
 30
0.0000
  0
VERTEX
  8
TMC5160_BOB_V1_2_GTO
 10
-3.835654
 20
-5.0800
 30
0.0000
  0
VERTEX
  8
TMC5160_BOB_V1_2_GTO
 10
-4.3434
 20
-5.0800
 30
0.0000
  0
VERTEX
  8
TMC5160_BOB_V1_2_GTO
 10
-3.835654
 20
-5.0800
 30
0.0000
  0
VERTEX
  8
TMC5160_BOB_V1_2_GTO
 10
-3.666236
 20
-4.910582
 30
0.0000
  0
VERTEX
  8
TMC5160_BOB_V1_2_GTO
 10
-3.666236
 20
-4.741418
 30
0.0000
  0
VERTEX
  8
TMC5160_BOB_V1_2_GTO
 10
-3.835654
 20
-4.572254
 30
0.0000
  0
VERTEX
  8
TMC5160_BOB_V1_2_GTO
 10
-4.3434
 20
-4.572254
 30
0.0000
  0
SEQEND
  0
POLYLINE
  8
TMC5160_BOB_V1_2_GTO
 66
1
 10
0.0000
 20
0.0000
 30
0.0000
 40
0.1778
 41
0.1778
  0
VERTEX
  8
TMC5160_BOB_V1_2_GTO
 10
-2.65049
 20
-5.587746
 30
0.0000
  0
VERTEX
  8
TMC5160_BOB_V1_2_GTO
 10
-3.327654
 20
-5.587746
 30
0.0000
  0
VERTEX
  8
TMC5160_BOB_V1_2_GTO
 10
-2.65049
 20
-4.910582
 30
0.0000
  0
VERTEX
  8
TMC5160_BOB_V1_2_GTO
 10
-2.65049
 20
-4.741418
 30
0.0000
  0
VERTEX
  8
TMC5160_BOB_V1_2_GTO
 10
-2.819908
 20
-4.572254
 30
0.0000
  0
VERTEX
  8
TMC5160_BOB_V1_2_GTO
 10
-3.15849
 20
-4.572254
 30
0.0000
  0
VERTEX
  8
TMC5160_BOB_V1_2_GTO
 10
-3.327654
 20
-4.741418
 30
0.0000
  0
SEQEND
  0
POLYLINE
  8
TMC5160_BOB_V1_2_GTO
 66
1
 10
0.0000
 20
0.0000
 30
0.0000
 40
0.1778
 41
0.1778
  0
VERTEX
  8
TMC5160_BOB_V1_2_GTO
 10
-4.004818
 20
-7.112254
 30
0.0000
  0
VERTEX
  8
TMC5160_BOB_V1_2_GTO
 10
-4.004818
 20
-8.127746
 30
0.0000
  0
VERTEX
  8
TMC5160_BOB_V1_2_GTO
 10
-3.497072
 20
-8.127746
 30
0.0000
  0
VERTEX
  8
TMC5160_BOB_V1_2_GTO
 10
-3.327654
 20
-7.958582
 30
0.0000
  0
VERTEX
  8
TMC5160_BOB_V1_2_GTO
 10
-3.327654
 20
-7.789164
 30
0.0000
  0
VERTEX
  8
TMC5160_BOB_V1_2_GTO
 10
-3.497072
 20
-7.6200
 30
0.0000
  0
VERTEX
  8
TMC5160_BOB_V1_2_GTO
 10
-4.004818
 20
-7.6200
 30
0.0000
  0
VERTEX
  8
TMC5160_BOB_V1_2_GTO
 10
-3.497072
 20
-7.6200
 30
0.0000
  0
VERTEX
  8
TMC5160_BOB_V1_2_GTO
 10
-3.327654
 20
-7.450836
 30
0.0000
  0
VERTEX
  8
TMC5160_BOB_V1_2_GTO
 10
-3.327654
 20
-7.281418
 30
0.0000
  0
VERTEX
  8
TMC5160_BOB_V1_2_GTO
 10
-3.497072
 20
-7.112254
 30
0.0000
  0
VERTEX
  8
TMC5160_BOB_V1_2_GTO
 10
-4.004818
 20
-7.112254
 30
0.0000
  0
SEQEND
  0
POLYLINE
  8
TMC5160_BOB_V1_2_GTO
 66
1
 10
0.0000
 20
0.0000
 30
0.0000
 40
0.1778
 41
0.1778
  0
VERTEX
  8
TMC5160_BOB_V1_2_GTO
 10
-2.989072
 20
-8.127746
 30
0.0000
  0
VERTEX
  8
TMC5160_BOB_V1_2_GTO
 10
-2.65049
 20
-8.127746
 30
0.0000
  0
VERTEX
  8
TMC5160_BOB_V1_2_GTO
 10
-2.819908
 20
-8.127746
 30
0.0000
  0
VERTEX
  8
TMC5160_BOB_V1_2_GTO
 10
-2.819908
 20
-7.112254
 30
0.0000
  0
VERTEX
  8
TMC5160_BOB_V1_2_GTO
 10
-2.989072
 20
-7.281418
 30
0.0000
  0
SEQEND
  0
POLYLINE
  8
TMC5160_BOB_V1_2_GTO
 66
1
 10
0.0000
 20
0.0000
 30
0.0000
 40
0.1778
 41
0.1778
  0
VERTEX
  8
TMC5160_BOB_V1_2_GTO
 10
-6.196076
 20
-17.272254
 30
0.0000
  0
VERTEX
  8
TMC5160_BOB_V1_2_GTO
 10
-6.196076
 20
-18.287746
 30
0.0000
  0
VERTEX
  8
TMC5160_BOB_V1_2_GTO
 10
-5.68833
 20
-18.287746
 30
0.0000
  0
VERTEX
  8
TMC5160_BOB_V1_2_GTO
 10
-5.518912
 20
-18.118582
 30
0.0000
  0
VERTEX
  8
TMC5160_BOB_V1_2_GTO
 10
-5.518912
 20
-17.441418
 30
0.0000
  0
VERTEX
  8
TMC5160_BOB_V1_2_GTO
 10
-5.68833
 20
-17.272254
 30
0.0000
  0
VERTEX
  8
TMC5160_BOB_V1_2_GTO
 10
-6.196076
 20
-17.272254
 30
0.0000
  0
SEQEND
  0
POLYLINE
  8
TMC5160_BOB_V1_2_GTO
 66
1
 10
0.0000
 20
0.0000
 30
0.0000
 40
0.1778
 41
0.1778
  0
VERTEX
  8
TMC5160_BOB_V1_2_GTO
 10
-5.18033
 20
-17.272254
 30
0.0000
  0
VERTEX
  8
TMC5160_BOB_V1_2_GTO
 10
-4.842002
 20
-17.272254
 30
0.0000
  0
VERTEX
  8
TMC5160_BOB_V1_2_GTO
 10
-5.011166
 20
-17.272254
 30
0.0000
  0
VERTEX
  8
TMC5160_BOB_V1_2_GTO
 10
-5.011166
 20
-18.287746
 30
0.0000
  0
VERTEX
  8
TMC5160_BOB_V1_2_GTO
 10
-5.18033
 20
-18.287746
 30
0.0000
  0
VERTEX
  8
TMC5160_BOB_V1_2_GTO
 10
-4.842002
 20
-18.287746
 30
0.0000
  0
SEQEND
  0
POLYLINE
  8
TMC5160_BOB_V1_2_GTO
 66
1
 10
0.0000
 20
0.0000
 30
0.0000
 40
0.1778
 41
0.1778
  0
VERTEX
  8
TMC5160_BOB_V1_2_GTO
 10
-4.334002
 20
-18.287746
 30
0.0000
  0
VERTEX
  8
TMC5160_BOB_V1_2_GTO
 10
-4.334002
 20
-17.610836
 30
0.0000
  0
VERTEX
  8
TMC5160_BOB_V1_2_GTO
 10
-3.99542
 20
-17.272254
 30
0.0000
  0
VERTEX
  8
TMC5160_BOB_V1_2_GTO
 10
-3.656838
 20
-17.610836
 30
0.0000
  0
VERTEX
  8
TMC5160_BOB_V1_2_GTO
 10
-3.656838
 20
-18.287746
 30
0.0000
  0
VERTEX
  8
TMC5160_BOB_V1_2_GTO
 10
-3.656838
 20
-17.7800
 30
0.0000
  0
VERTEX
  8
TMC5160_BOB_V1_2_GTO
 10
-4.334002
 20
-17.7800
 30
0.0000
  0
SEQEND
  0
POLYLINE
  8
TMC5160_BOB_V1_2_GTO
 66
1
 10
0.0000
 20
0.0000
 30
0.0000
 40
0.1778
 41
0.1778
  0
VERTEX
  8
TMC5160_BOB_V1_2_GTO
 10
-2.641346
 20
-17.441418
 30
0.0000
  0
VERTEX
  8
TMC5160_BOB_V1_2_GTO
 10
-2.81051
 20
-17.272254
 30
0.0000
  0
VERTEX
  8
TMC5160_BOB_V1_2_GTO
 10
-3.149092
 20
-17.272254
 30
0.0000
  0
VERTEX
  8
TMC5160_BOB_V1_2_GTO
 10
-3.31851
 20
-17.441418
 30
0.0000
  0
VERTEX
  8
TMC5160_BOB_V1_2_GTO
 10
-3.31851
 20
-18.118582
 30
0.0000
  0
VERTEX
  8
TMC5160_BOB_V1_2_GTO
 10
-3.149092
 20
-18.287746
 30
0.0000
  0
VERTEX
  8
TMC5160_BOB_V1_2_GTO
 10
-2.81051
 20
-18.287746
 30
0.0000
  0
VERTEX
  8
TMC5160_BOB_V1_2_GTO
 10
-2.641346
 20
-18.118582
 30
0.0000
  0
VERTEX
  8
TMC5160_BOB_V1_2_GTO
 10
-2.641346
 20
-17.7800
 30
0.0000
  0
VERTEX
  8
TMC5160_BOB_V1_2_GTO
 10
-2.979928
 20
-17.7800
 30
0.0000
  0
SEQEND
  0
POLYLINE
  8
TMC5160_BOB_V1_2_GTO
 66
1
 10
0.0000
 20
0.0000
 30
0.0000
 40
0.1778
 41
0.1778
  0
VERTEX
  8
TMC5160_BOB_V1_2_GTO
 10
-2.302764
 20
-17.441418
 30
0.0000
  0
VERTEX
  8
TMC5160_BOB_V1_2_GTO
 10
-2.133346
 20
-17.272254
 30
0.0000
  0
VERTEX
  8
TMC5160_BOB_V1_2_GTO
 10
-1.795018
 20
-17.272254
 30
0.0000
  0
VERTEX
  8
TMC5160_BOB_V1_2_GTO
 10
-1.6256
 20
-17.441418
 30
0.0000
  0
VERTEX
  8
TMC5160_BOB_V1_2_GTO
 10
-1.6256
 20
-18.118582
 30
0.0000
  0
VERTEX
  8
TMC5160_BOB_V1_2_GTO
 10
-1.795018
 20
-18.287746
 30
0.0000
  0
VERTEX
  8
TMC5160_BOB_V1_2_GTO
 10
-2.133346
 20
-18.287746
 30
0.0000
  0
VERTEX
  8
TMC5160_BOB_V1_2_GTO
 10
-2.302764
 20
-18.118582
 30
0.0000
  0
VERTEX
  8
TMC5160_BOB_V1_2_GTO
 10
-2.302764
 20
-17.441418
 30
0.0000
  0
SEQEND
  0
POLYLINE
  8
TMC5160_BOB_V1_2_GTO
 66
1
 10
0.0000
 20
0.0000
 30
0.0000
 40
0.1778
 41
0.1778
  0
VERTEX
  8
TMC5160_BOB_V1_2_GTO
 10
-4.672584
 20
-20.828254
 30
0.0000
  0
VERTEX
  8
TMC5160_BOB_V1_2_GTO
 10
-5.349748
 20
-20.828254
 30
0.0000
  0
VERTEX
  8
TMC5160_BOB_V1_2_GTO
 10
-5.349748
 20
-21.843746
 30
0.0000
  0
VERTEX
  8
TMC5160_BOB_V1_2_GTO
 10
-4.672584
 20
-21.843746
 30
0.0000
  0
SEQEND
  0
POLYLINE
  8
TMC5160_BOB_V1_2_GTO
 66
1
 10
0.0000
 20
0.0000
 30
0.0000
 40
0.1778
 41
0.1778
  0
VERTEX
  8
TMC5160_BOB_V1_2_GTO
 10
-5.349748
 20
-21.3360
 30
0.0000
  0
VERTEX
  8
TMC5160_BOB_V1_2_GTO
 10
-5.011166
 20
-21.3360
 30
0.0000
  0
SEQEND
  0
POLYLINE
  8
TMC5160_BOB_V1_2_GTO
 66
1
 10
0.0000
 20
0.0000
 30
0.0000
 40
0.1778
 41
0.1778
  0
VERTEX
  8
TMC5160_BOB_V1_2_GTO
 10
-4.334002
 20
-21.843746
 30
0.0000
  0
VERTEX
  8
TMC5160_BOB_V1_2_GTO
 10
-4.334002
 20
-20.828254
 30
0.0000
  0
VERTEX
  8
TMC5160_BOB_V1_2_GTO
 10
-3.656838
 20
-21.843746
 30
0.0000
  0
VERTEX
  8
TMC5160_BOB_V1_2_GTO
 10
-3.656838
 20
-20.828254
 30
0.0000
  0
SEQEND
  0
POLYLINE
  8
TMC5160_BOB_V1_2_GTO
 66
1
 10
0.0000
 20
0.0000
 30
0.0000
 40
0.1778
 41
0.1778
  0
VERTEX
  8
TMC5160_BOB_V1_2_GTO
 10
-2.641346
 20
-20.997418
 30
0.0000
  0
VERTEX
  8
TMC5160_BOB_V1_2_GTO
 10
-2.81051
 20
-20.828254
 30
0.0000
  0
VERTEX
  8
TMC5160_BOB_V1_2_GTO
 10
-3.149092
 20
-20.828254
 30
0.0000
  0
VERTEX
  8
TMC5160_BOB_V1_2_GTO
 10
-3.31851
 20
-20.997418
 30
0.0000
  0
VERTEX
  8
TMC5160_BOB_V1_2_GTO
 10
-3.31851
 20
-21.674582
 30
0.0000
  0
VERTEX
  8
TMC5160_BOB_V1_2_GTO
 10
-3.149092
 20
-21.843746
 30
0.0000
  0
VERTEX
  8
TMC5160_BOB_V1_2_GTO
 10
-2.81051
 20
-21.843746
 30
0.0000
  0
VERTEX
  8
TMC5160_BOB_V1_2_GTO
 10
-2.641346
 20
-21.674582
 30
0.0000
  0
SEQEND
  0
POLYLINE
  8
TMC5160_BOB_V1_2_GTO
 66
1
 10
0.0000
 20
0.0000
 30
0.0000
 40
0.1778
 41
0.1778
  0
VERTEX
  8
TMC5160_BOB_V1_2_GTO
 10
-2.302764
 20
-21.843746
 30
0.0000
  0
VERTEX
  8
TMC5160_BOB_V1_2_GTO
 10
-2.302764
 20
-21.166836
 30
0.0000
  0
VERTEX
  8
TMC5160_BOB_V1_2_GTO
 10
-1.964182
 20
-20.828254
 30
0.0000
  0
VERTEX
  8
TMC5160_BOB_V1_2_GTO
 10
-1.6256
 20
-21.166836
 30
0.0000
  0
VERTEX
  8
TMC5160_BOB_V1_2_GTO
 10
-1.6256
 20
-21.843746
 30
0.0000
  0
VERTEX
  8
TMC5160_BOB_V1_2_GTO
 10
-1.6256
 20
-21.3360
 30
0.0000
  0
VERTEX
  8
TMC5160_BOB_V1_2_GTO
 10
-2.302764
 20
-21.3360
 30
0.0000
  0
SEQEND
  0
POLYLINE
  8
TMC5160_BOB_V1_2_GTO
 66
1
 10
0.0000
 20
0.0000
 30
0.0000
 40
0.1778
 41
0.1778
  0
VERTEX
  8
TMC5160_BOB_V1_2_GTO
 10
-4.672584
 20
-22.860254
 30
0.0000
  0
VERTEX
  8
TMC5160_BOB_V1_2_GTO
 10
-5.349748
 20
-22.860254
 30
0.0000
  0
VERTEX
  8
TMC5160_BOB_V1_2_GTO
 10
-5.349748
 20
-23.875746
 30
0.0000
  0
VERTEX
  8
TMC5160_BOB_V1_2_GTO
 10
-4.672584
 20
-23.875746
 30
0.0000
  0
SEQEND
  0
POLYLINE
  8
TMC5160_BOB_V1_2_GTO
 66
1
 10
0.0000
 20
0.0000
 30
0.0000
 40
0.1778
 41
0.1778
  0
VERTEX
  8
TMC5160_BOB_V1_2_GTO
 10
-5.349748
 20
-23.3680
 30
0.0000
  0
VERTEX
  8
TMC5160_BOB_V1_2_GTO
 10
-5.011166
 20
-23.3680
 30
0.0000
  0
SEQEND
  0
POLYLINE
  8
TMC5160_BOB_V1_2_GTO
 66
1
 10
0.0000
 20
0.0000
 30
0.0000
 40
0.1778
 41
0.1778
  0
VERTEX
  8
TMC5160_BOB_V1_2_GTO
 10
-4.334002
 20
-23.875746
 30
0.0000
  0
VERTEX
  8
TMC5160_BOB_V1_2_GTO
 10
-4.334002
 20
-22.860254
 30
0.0000
  0
VERTEX
  8
TMC5160_BOB_V1_2_GTO
 10
-3.656838
 20
-23.875746
 30
0.0000
  0
VERTEX
  8
TMC5160_BOB_V1_2_GTO
 10
-3.656838
 20
-22.860254
 30
0.0000
  0
SEQEND
  0
POLYLINE
  8
TMC5160_BOB_V1_2_GTO
 66
1
 10
0.0000
 20
0.0000
 30
0.0000
 40
0.1778
 41
0.1778
  0
VERTEX
  8
TMC5160_BOB_V1_2_GTO
 10
-2.641346
 20
-23.029418
 30
0.0000
  0
VERTEX
  8
TMC5160_BOB_V1_2_GTO
 10
-2.81051
 20
-22.860254
 30
0.0000
  0
VERTEX
  8
TMC5160_BOB_V1_2_GTO
 10
-3.149092
 20
-22.860254
 30
0.0000
  0
VERTEX
  8
TMC5160_BOB_V1_2_GTO
 10
-3.31851
 20
-23.029418
 30
0.0000
  0
VERTEX
  8
TMC5160_BOB_V1_2_GTO
 10
-3.31851
 20
-23.706582
 30
0.0000
  0
VERTEX
  8
TMC5160_BOB_V1_2_GTO
 10
-3.149092
 20
-23.875746
 30
0.0000
  0
VERTEX
  8
TMC5160_BOB_V1_2_GTO
 10
-2.81051
 20
-23.875746
 30
0.0000
  0
VERTEX
  8
TMC5160_BOB_V1_2_GTO
 10
-2.641346
 20
-23.706582
 30
0.0000
  0
SEQEND
  0
POLYLINE
  8
TMC5160_BOB_V1_2_GTO
 66
1
 10
0.0000
 20
0.0000
 30
0.0000
 40
0.1778
 41
0.1778
  0
VERTEX
  8
TMC5160_BOB_V1_2_GTO
 10
-2.302764
 20
-22.860254
 30
0.0000
  0
VERTEX
  8
TMC5160_BOB_V1_2_GTO
 10
-2.302764
 20
-23.875746
 30
0.0000
  0
VERTEX
  8
TMC5160_BOB_V1_2_GTO
 10
-1.795018
 20
-23.875746
 30
0.0000
  0
VERTEX
  8
TMC5160_BOB_V1_2_GTO
 10
-1.6256
 20
-23.706582
 30
0.0000
  0
VERTEX
  8
TMC5160_BOB_V1_2_GTO
 10
-1.6256
 20
-23.537164
 30
0.0000
  0
VERTEX
  8
TMC5160_BOB_V1_2_GTO
 10
-1.795018
 20
-23.3680
 30
0.0000
  0
VERTEX
  8
TMC5160_BOB_V1_2_GTO
 10
-2.302764
 20
-23.3680
 30
0.0000
  0
VERTEX
  8
TMC5160_BOB_V1_2_GTO
 10
-1.795018
 20
-23.3680
 30
0.0000
  0
VERTEX
  8
TMC5160_BOB_V1_2_GTO
 10
-1.6256
 20
-23.198836
 30
0.0000
  0
VERTEX
  8
TMC5160_BOB_V1_2_GTO
 10
-1.6256
 20
-23.029418
 30
0.0000
  0
VERTEX
  8
TMC5160_BOB_V1_2_GTO
 10
-1.795018
 20
-22.860254
 30
0.0000
  0
VERTEX
  8
TMC5160_BOB_V1_2_GTO
 10
-2.302764
 20
-22.860254
 30
0.0000
  0
SEQEND
  0
POLYLINE
  8
TMC5160_BOB_V1_2_GTO
 66
1
 10
0.0000
 20
0.0000
 30
0.0000
 40
0.1778
 41
0.1778
  0
VERTEX
  8
TMC5160_BOB_V1_2_GTO
 10
-4.672584
 20
-24.892254
 30
0.0000
  0
VERTEX
  8
TMC5160_BOB_V1_2_GTO
 10
-5.349748
 20
-24.892254
 30
0.0000
  0
VERTEX
  8
TMC5160_BOB_V1_2_GTO
 10
-5.349748
 20
-25.907746
 30
0.0000
  0
VERTEX
  8
TMC5160_BOB_V1_2_GTO
 10
-4.672584
 20
-25.907746
 30
0.0000
  0
SEQEND
  0
POLYLINE
  8
TMC5160_BOB_V1_2_GTO
 66
1
 10
0.0000
 20
0.0000
 30
0.0000
 40
0.1778
 41
0.1778
  0
VERTEX
  8
TMC5160_BOB_V1_2_GTO
 10
-5.349748
 20
-25.4000
 30
0.0000
  0
VERTEX
  8
TMC5160_BOB_V1_2_GTO
 10
-5.011166
 20
-25.4000
 30
0.0000
  0
SEQEND
  0
POLYLINE
  8
TMC5160_BOB_V1_2_GTO
 66
1
 10
0.0000
 20
0.0000
 30
0.0000
 40
0.1778
 41
0.1778
  0
VERTEX
  8
TMC5160_BOB_V1_2_GTO
 10
-4.334002
 20
-25.907746
 30
0.0000
  0
VERTEX
  8
TMC5160_BOB_V1_2_GTO
 10
-4.334002
 20
-24.892254
 30
0.0000
  0
VERTEX
  8
TMC5160_BOB_V1_2_GTO
 10
-3.656838
 20
-25.907746
 30
0.0000
  0
VERTEX
  8
TMC5160_BOB_V1_2_GTO
 10
-3.656838
 20
-24.892254
 30
0.0000
  0
SEQEND
  0
POLYLINE
  8
TMC5160_BOB_V1_2_GTO
 66
1
 10
0.0000
 20
0.0000
 30
0.0000
 40
0.1778
 41
0.1778
  0
VERTEX
  8
TMC5160_BOB_V1_2_GTO
 10
-2.641346
 20
-25.061418
 30
0.0000
  0
VERTEX
  8
TMC5160_BOB_V1_2_GTO
 10
-2.81051
 20
-24.892254
 30
0.0000
  0
VERTEX
  8
TMC5160_BOB_V1_2_GTO
 10
-3.149092
 20
-24.892254
 30
0.0000
  0
VERTEX
  8
TMC5160_BOB_V1_2_GTO
 10
-3.31851
 20
-25.061418
 30
0.0000
  0
VERTEX
  8
TMC5160_BOB_V1_2_GTO
 10
-3.31851
 20
-25.738582
 30
0.0000
  0
VERTEX
  8
TMC5160_BOB_V1_2_GTO
 10
-3.149092
 20
-25.907746
 30
0.0000
  0
VERTEX
  8
TMC5160_BOB_V1_2_GTO
 10
-2.81051
 20
-25.907746
 30
0.0000
  0
VERTEX
  8
TMC5160_BOB_V1_2_GTO
 10
-2.641346
 20
-25.738582
 30
0.0000
  0
SEQEND
  0
POLYLINE
  8
TMC5160_BOB_V1_2_GTO
 66
1
 10
0.0000
 20
0.0000
 30
0.0000
 40
0.1778
 41
0.1778
  0
VERTEX
  8
TMC5160_BOB_V1_2_GTO
 10
-2.302764
 20
-25.907746
 30
0.0000
  0
VERTEX
  8
TMC5160_BOB_V1_2_GTO
 10
-2.302764
 20
-24.892254
 30
0.0000
  0
VERTEX
  8
TMC5160_BOB_V1_2_GTO
 10
-1.6256
 20
-25.907746
 30
0.0000
  0
VERTEX
  8
TMC5160_BOB_V1_2_GTO
 10
-1.6256
 20
-24.892254
 30
0.0000
  0
SEQEND
  0
POLYLINE
  8
TMC5160_BOB_V1_2_GTO
 66
1
 10
0.0000
 20
0.0000
 30
0.0000
 40
0.1270
 41
0.1270
  0
VERTEX
  8
TMC5160_BOB_V1_2_GTO
 10
-2.328164
 20
-3.081782
 30
0.0000
  0
VERTEX
  8
TMC5160_BOB_V1_2_GTO
 10
-2.463546
 20
-3.217164
 30
0.0000
  0
VERTEX
  8
TMC5160_BOB_V1_2_GTO
 10
-2.463546
 20
-3.487928
 30
0.0000
  0
VERTEX
  8
TMC5160_BOB_V1_2_GTO
 10
-2.328164
 20
-3.62331
 30
0.0000
  0
VERTEX
  8
TMC5160_BOB_V1_2_GTO
 10
-1.786382
 20
-3.62331
 30
0.0000
  0
VERTEX
  8
TMC5160_BOB_V1_2_GTO
 10
-1.6510
 20
-3.487928
 30
0.0000
  0
VERTEX
  8
TMC5160_BOB_V1_2_GTO
 10
-1.6510
 20
-3.217164
 30
0.0000
  0
VERTEX
  8
TMC5160_BOB_V1_2_GTO
 10
-1.786382
 20
-3.081782
 30
0.0000
  0
VERTEX
  8
TMC5160_BOB_V1_2_GTO
 10
-2.0574
 20
-3.081782
 30
0.0000
  0
VERTEX
  8
TMC5160_BOB_V1_2_GTO
 10
-2.0574
 20
-3.352546
 30
0.0000
  0
SEQEND
  0
POLYLINE
  8
TMC5160_BOB_V1_2_GTO
 66
1
 10
0.0000
 20
0.0000
 30
0.0000
 40
0.1270
 41
0.1270
  0
VERTEX
  8
TMC5160_BOB_V1_2_GTO
 10
-1.6510
 20
-2.810764
 30
0.0000
  0
VERTEX
  8
TMC5160_BOB_V1_2_GTO
 10
-2.463546
 20
-2.810764
 30
0.0000
  0
VERTEX
  8
TMC5160_BOB_V1_2_GTO
 10
-1.6510
 20
-2.269236
 30
0.0000
  0
VERTEX
  8
TMC5160_BOB_V1_2_GTO
 10
-2.463546
 20
-2.269236
 30
0.0000
  0
SEQEND
  0
POLYLINE
  8
TMC5160_BOB_V1_2_GTO
 66
1
 10
0.0000
 20
0.0000
 30
0.0000
 40
0.1270
 41
0.1270
  0
VERTEX
  8
TMC5160_BOB_V1_2_GTO
 10
-2.463546
 20
-1.998218
 30
0.0000
  0
VERTEX
  8
TMC5160_BOB_V1_2_GTO
 10
-1.6510
 20
-1.998218
 30
0.0000
  0
VERTEX
  8
TMC5160_BOB_V1_2_GTO
 10
-1.6510
 20
-1.592072
 30
0.0000
  0
VERTEX
  8
TMC5160_BOB_V1_2_GTO
 10
-1.786382
 20
-1.45669
 30
0.0000
  0
VERTEX
  8
TMC5160_BOB_V1_2_GTO
 10
-2.328164
 20
-1.45669
 30
0.0000
  0
VERTEX
  8
TMC5160_BOB_V1_2_GTO
 10
-2.463546
 20
-1.592072
 30
0.0000
  0
VERTEX
  8
TMC5160_BOB_V1_2_GTO
 10
-2.463546
 20
-1.998218
 30
0.0000
  0
SEQEND
  0
POLYLINE
  8
TMC5160_BOB_V1_2_GTO
 66
1
 10
0.0000
 20
0.0000
 30
0.0000
 40
0.1270
 41
0.1270
  0
VERTEX
  8
TMC5160_BOB_V1_2_GTO
 10
-2.463546
 20
-0.677164
 30
0.0000
  0
VERTEX
  8
TMC5160_BOB_V1_2_GTO
 10
-1.921764
 20
-0.677164
 30
0.0000
  0
VERTEX
  8
TMC5160_BOB_V1_2_GTO
 10
-1.6510
 20
-0.406146
 30
0.0000
  0
VERTEX
  8
TMC5160_BOB_V1_2_GTO
 10
-1.921764
 20
-0.135382
 30
0.0000
  0
VERTEX
  8
TMC5160_BOB_V1_2_GTO
 10
-2.463546
 20
-0.135382
 30
0.0000
  0
SEQEND
  0
POLYLINE
  8
TMC5160_BOB_V1_2_GTO
 66
1
 10
0.0000
 20
0.0000
 30
0.0000
 40
0.1270
 41
0.1270
  0
VERTEX
  8
TMC5160_BOB_V1_2_GTO
 10
-2.328164
 20
0.677164
 30
0.0000
  0
VERTEX
  8
TMC5160_BOB_V1_2_GTO
 10
-2.463546
 20
0.541782
 30
0.0000
  0
VERTEX
  8
TMC5160_BOB_V1_2_GTO
 10
-2.463546
 20
0.270764
 30
0.0000
  0
VERTEX
  8
TMC5160_BOB_V1_2_GTO
 10
-2.328164
 20
0.135382
 30
0.0000
  0
VERTEX
  8
TMC5160_BOB_V1_2_GTO
 10
-2.192782
 20
0.135382
 30
0.0000
  0
VERTEX
  8
TMC5160_BOB_V1_2_GTO
 10
-2.0574
 20
0.270764
 30
0.0000
  0
VERTEX
  8
TMC5160_BOB_V1_2_GTO
 10
-2.0574
 20
0.541782
 30
0.0000
  0
VERTEX
  8
TMC5160_BOB_V1_2_GTO
 10
-1.921764
 20
0.677164
 30
0.0000
  0
VERTEX
  8
TMC5160_BOB_V1_2_GTO
 10
-1.786382
 20
0.677164
 30
0.0000
  0
VERTEX
  8
TMC5160_BOB_V1_2_GTO
 10
-1.6510
 20
0.541782
 30
0.0000
  0
VERTEX
  8
TMC5160_BOB_V1_2_GTO
 10
-1.6510
 20
0.270764
 30
0.0000
  0
VERTEX
  8
TMC5160_BOB_V1_2_GTO
 10
-1.786382
 20
0.135382
 30
0.0000
  0
SEQEND
  0
POLYLINE
  8
TMC5160_BOB_V1_2_GTO
 66
1
 10
0.0000
 20
0.0000
 30
0.0000
 40
0.1270
 41
0.1270
  0
VERTEX
  8
TMC5160_BOB_V1_2_GTO
 10
-33.51911
 20
-14.840204
 30
0.0000
  0
VERTEX
  8
TMC5160_BOB_V1_2_GTO
 10
-33.72866
 20
-14.840204
 30
0.0000
  0
VERTEX
  8
TMC5160_BOB_V1_2_GTO
 10
-33.93821
 20
-15.049754
 30
0.0000
  0
VERTEX
  8
TMC5160_BOB_V1_2_GTO
 10
-33.93821
 20
-15.259304
 30
0.0000
  0
VERTEX
  8
TMC5160_BOB_V1_2_GTO
 10
-33.51911
 20
-15.67815
 30
0.0000
  0
VERTEX
  8
TMC5160_BOB_V1_2_GTO
 10
-33.309814
 20
-15.67815
 30
0.0000
  0
VERTEX
  8
TMC5160_BOB_V1_2_GTO
 10
-33.100264
 20
-15.4686
 30
0.0000
  0
VERTEX
  8
TMC5160_BOB_V1_2_GTO
 10
-33.100264
 20
-15.259304
 30
0.0000
  0
VERTEX
  8
TMC5160_BOB_V1_2_GTO
 10
-33.309814
 20
-15.049754
 30
0.0000
  0
VERTEX
  8
TMC5160_BOB_V1_2_GTO
 10
-33.51911
 20
-15.259304
 30
0.0000
  0
SEQEND
  0
POLYLINE
  8
TMC5160_BOB_V1_2_GTO
 66
1
 10
0.0000
 20
0.0000
 30
0.0000
 40
0.1270
 41
0.1270
  0
VERTEX
  8
TMC5160_BOB_V1_2_GTO
 10
-32.786066
 20
-15.154402
 30
0.0000
  0
VERTEX
  8
TMC5160_BOB_V1_2_GTO
 10
-33.414462
 20
-14.526006
 30
0.0000
  0
VERTEX
  8
TMC5160_BOB_V1_2_GTO
 10
-32.36722
 20
-14.735556
 30
0.0000
  0
VERTEX
  8
TMC5160_BOB_V1_2_GTO
 10
-32.995616
 20
-14.10716
 30
0.0000
  0
SEQEND
  0
POLYLINE
  8
TMC5160_BOB_V1_2_GTO
 66
1
 10
0.0000
 20
0.0000
 30
0.0000
 40
0.1270
 41
0.1270
  0
VERTEX
  8
TMC5160_BOB_V1_2_GTO
 10
-32.786066
 20
-13.89761
 30
0.0000
  0
VERTEX
  8
TMC5160_BOB_V1_2_GTO
 10
-32.15767
 20
-14.526006
 30
0.0000
  0
VERTEX
  8
TMC5160_BOB_V1_2_GTO
 10
-31.843472
 20
-14.211808
 30
0.0000
  0
VERTEX
  8
TMC5160_BOB_V1_2_GTO
 10
-31.843472
 20
-14.002512
 30
0.0000
  0
VERTEX
  8
TMC5160_BOB_V1_2_GTO
 10
-32.262318
 20
-13.583412
 30
0.0000
  0
VERTEX
  8
TMC5160_BOB_V1_2_GTO
 10
-32.471868
 20
-13.583412
 30
0.0000
  0
VERTEX
  8
TMC5160_BOB_V1_2_GTO
 10
-32.786066
 20
-13.89761
 30
0.0000
  0
SEQEND
  0
ENDSEC
  0
EOF
